<svg width="243" height="160" viewBox="0 0 243 160" fill="none" xmlns="http://www.w3.org/2000/svg">
<path d="M192.856 95.9828L192.383 100.495C191.153 103.434 189.924 106.371 188.696 109.306C188.267 110.337 187.836 111.366 187.404 112.393C187.207 112.873 186.929 113.316 186.581 113.701C186.564 113.727 186.541 113.748 186.514 113.764C186.488 113.78 186.457 113.789 186.426 113.792C186.322 113.792 186.285 113.653 186.277 113.549C186.218 112.436 186.085 111.328 185.879 110.233C184.728 104.943 178.587 103.005 173.771 103.125C171.844 103.154 169.945 103.594 168.201 104.415C165.686 105.632 164.706 109.018 164.572 109.143L164.466 109.578L162.741 116.763C162.378 118.365 162.1 119.212 160.621 119.639C160.573 119.655 159.099 120.44 159.051 120.44C158.479 120.6 160.044 120.256 159.425 120.152L157.462 119.845L156.627 119.652L144.433 116.766C144.905 116.846 145.388 116.934 145.88 117.033L148.71 117.709L147.962 114.12C146.016 102.949 149.241 92.8136 154.736 87.3107C156.183 85.8636 156.902 85.4924 158.589 84.5286L159.537 86.774C159.537 86.774 169.234 89.6656 171.52 80.7932C172.444 80.8733 174.219 80.86 175.135 81.0602C179.909 82.0612 184.22 84.6057 187.404 88.3013C187.684 88.6217 187.959 88.9527 188.231 89.2892L188.375 89.4654C188.544 89.6763 188.723 89.8926 188.891 90.1088L189.011 90.2797C190.407 92.1015 191.691 94.006 192.856 95.9828Z" fill="#353642"/>
<path d="M77.6289 49.2803C79.1668 41.5907 85.6976 34.1414 104.35 32.4353C145.81 28.6466 123.398 17.2163 136.898 4.70735C150.397 -7.8016 201.439 12.7788 188.087 44.9202C174.734 77.0617 218.813 41.3878 237.482 82.1C240.186 88.0079 241.488 94.461 241.287 100.956C241.051 107.817 239.284 114.54 236.115 120.631C230.153 132.277 219.077 142.653 203.06 149.082C200.696 150.045 198.222 150.911 195.638 151.68" stroke="#EEFAE1" stroke-width="1.5" stroke-miterlimit="10"/>
<path d="M208.961 112.522C208.638 116.295 206.08 116.909 206.08 116.909C203.917 118.188 200.596 116.813 199.926 114.415C199.916 114.389 199.91 114.362 199.91 114.335C199.376 112.282 198.334 109.644 196.935 106.757C194.238 100.232 190.733 93.6531 186.236 88.4492C183.053 84.7539 178.741 82.2094 173.968 81.2082C173.952 81.2082 173.944 81.1922 173.928 81.1922C167.597 79.2858 164.516 75.3929 163.181 71.6603C163.181 71.6603 163.181 71.6603 163.181 71.6442C162.61 69.2866 162.028 66.9878 162.34 65.5967C162.874 63.159 163.141 60.5237 162.476 59.9897C161.64 59.2902 160.129 59.8081 156.284 60.5824C152.955 61.2659 151.179 60.8788 150.779 58.8443C150.716 58.5287 150.683 58.2075 150.683 57.8857C150.667 58.0887 149.882 57.2823 149.844 57.4745C149.593 58.5132 149.091 58.9297 147.997 59.3863C146.371 60.0618 145.706 62.6704 145.466 64.4085C145.215 66.2589 146.048 68.8114 146.707 70.5495C145.863 69.5857 144.897 69.6978 143.386 70.2825C143.006 70.4267 142.051 70.3867 141.295 70.1223C141.402 70.0308 141.528 69.964 141.663 69.9274C141.906 69.8473 140.144 68.9716 140.401 68.9155C142.966 68.3361 144.406 66.1974 144.101 64.3151C143.346 59.5758 144.352 54.0009 147.553 50.3083C151.083 46.2472 156.842 45.4035 161.718 47.2618C165.547 48.7169 169.167 51.702 170.494 55.683C170.494 55.699 170.494 55.715 170.51 55.731C170.679 56.2373 170.808 56.7561 170.897 57.2823C171.386 60.2433 170.342 63.2444 169.763 66.1707C169.554 67.2254 170.083 68.3762 170.195 69.2119C170.839 74.2315 176.632 75.6492 181.217 77.7799C190.853 82.2682 198.721 89.9418 204.013 99.2734C207.527 105.452 208.782 109.665 208.961 112.522Z" fill="#B0CB93"/>
<path d="M158.161 83.5332C158.057 83.5893 157.953 83.6453 157.857 83.7094C156.127 84.7013 154.536 85.9188 153.126 87.3299C147.634 92.8328 144.408 102.968 146.355 114.139L147.102 117.709" stroke="black" stroke-width="1.5" stroke-miterlimit="10"/>
<path d="M206.755 158.49C206.756 150.151 206.036 141.827 204.601 133.611C203.641 128.037 202.319 122.532 200.644 117.129C199.637 113.848 198.406 110.308 196.943 106.754C195.584 103.428 194.015 100.193 192.244 97.0671C190.527 94.0065 188.518 91.1191 186.244 88.4456C183.061 84.7504 178.749 82.2056 173.976 81.2046C173.06 81.0105 172.134 80.8714 171.202 80.7881" stroke="black" stroke-width="1.5" stroke-miterlimit="10"/>
<path d="M108.067 85.9125L107.931 85.8885C106.3 85.6153 104.627 85.7558 103.065 86.2967C101.503 86.8379 100.101 87.7625 98.9888 88.9857L89.8574 98.9341L88.7894 100.109C88.723 100.181 88.6605 100.257 88.6025 100.336" stroke="black" stroke-width="1.5" stroke-miterlimit="10"/>
<path d="M94.8799 102.933L99.8915 97.3742L99.8995 97.3662" stroke="black" stroke-width="1.5" stroke-miterlimit="10"/>
<path d="M138.476 131.646L162.049 139.952C164.319 140.752 166.735 141.054 169.133 140.837C171.53 140.62 173.852 139.89 175.942 138.695C178.032 137.5 179.839 135.869 181.243 133.914C182.646 131.958 183.611 129.723 184.074 127.361L189.651 98.8878C189.937 97.4257 189.924 95.9212 189.612 94.4641C189.301 93.0074 188.699 91.6286 187.841 90.4105C187.602 90.0674 187.341 89.7393 187.062 89.428" stroke="black" stroke-width="1.5" stroke-miterlimit="10"/>
<path d="M122.875 130.499C119.874 132.525 117.668 138.679 116.496 142.719C116.296 143.397 115.88 143.991 115.313 144.412C114.746 144.834 114.058 145.061 113.351 145.058C112.873 145.058 112.4 144.954 111.965 144.754C111.299 144.441 110.757 143.913 110.428 143.255C110.098 142.596 110 141.846 110.15 141.125C112.112 131.529 119.038 112.586 142.831 116.761C143.306 116.842 143.789 116.93 144.278 117.028L147.103 117.709L155.024 119.64L157.16 120.155C157.971 120.352 158.82 120.321 159.614 120.067C159.663 120.057 159.711 120.044 159.758 120.027C160.49 119.776 161.146 119.344 161.667 118.772C162.187 118.2 162.555 117.506 162.735 116.753L164.538 109.256L164.642 108.821L167.002 99.0193" stroke="black" stroke-width="1.5" stroke-miterlimit="10"/>
<path d="M111.271 99.7743H103.197C102.276 99.7743 101.394 99.4085 100.743 98.7578C100.092 98.1069 99.7261 97.2239 99.7261 96.3033C99.7261 95.3827 100.092 94.5 100.743 93.849C101.394 93.1981 102.276 92.8323 103.197 92.8323H114.635" stroke="black" stroke-width="1.5" stroke-miterlimit="10"/>
<path d="M105.074 99.7722C104.959 101.187 104.42 102.234 103.624 102.958C101.574 104.827 97.8171 104.613 95.2031 103.334" stroke="black" stroke-width="1.5" stroke-miterlimit="10"/>
<path d="M89.8681 98.9306C87.5532 96.1325 88.0258 92.3384 89.8227 89.4067C94.9197 81.087 106.566 82.6837 114.12 86.1413C120.239 88.9341 125.601 93.1314 130.821 97.3179C133.37 99.3631 135.875 101.494 138.297 103.726C138.741 104.128 139.271 104.425 139.847 104.592C140.422 104.76 141.028 104.795 141.62 104.695C142.211 104.595 142.771 104.362 143.26 104.014C143.748 103.666 144.15 103.211 144.438 102.685C145.773 100.22 147.217 97.5315 147.489 96.7866" stroke="black" stroke-width="1.5" stroke-miterlimit="10"/>
<path d="M103.627 102.958C103.627 102.958 115.671 109.491 124.618 118.879" stroke="black" stroke-width="1.5" stroke-miterlimit="10"/>
<path d="M119.935 134.042C118.6 136.322 119.748 139.67 122.271 140.471C125.494 141.511 128.901 141.853 132.265 141.473C135.936 141.045 138.377 138.015 139.984 134.544C140.101 134.286 140.161 134.006 140.162 133.723C140.163 133.439 140.105 133.159 139.991 132.9C139.876 132.641 139.709 132.408 139.499 132.218C139.289 132.028 139.041 131.885 138.772 131.797C138.286 131.637 137.758 131.666 137.293 131.878C136.828 132.09 136.459 132.47 136.262 132.942C135.728 134.175 134.903 135.719 133.808 136.413" stroke="black" stroke-width="1.5" stroke-miterlimit="10"/>
<path d="M126.223 133.615C126.223 133.615 122.925 137.16 125.526 140.914C125.64 141.072 125.775 141.214 125.927 141.336" stroke="black" stroke-width="1.5" stroke-miterlimit="10"/>
<path d="M130.573 134.2C130.573 134.2 127.524 141.062 131.435 141.564" stroke="black" stroke-width="1.5" stroke-miterlimit="10"/>
<path d="M238.828 158.497H49.9946" stroke="black" stroke-width="1.5" stroke-miterlimit="10"/>
<path d="M124.282 145.565H105.45C105.259 147.343 104.417 148.987 103.086 150.181C101.755 151.375 100.029 152.034 98.2413 152.032H34.9463C34.9498 153.744 35.6314 155.385 36.842 156.595C38.0523 157.805 39.693 158.487 41.405 158.491H124.282C125.996 158.49 127.641 157.81 128.856 156.599C130.07 155.389 130.755 153.747 130.762 152.032V147.69C130.762 147.124 130.537 146.581 130.136 146.18C129.736 145.78 129.192 145.554 128.626 145.554L124.282 145.565Z" stroke="black" stroke-width="1.5" stroke-miterlimit="10"/>
<path d="M95.2031 103.334C95.7579 104.101 96.1571 104.971 96.3779 105.892L105.298 143.096C105.495 143.903 105.547 144.739 105.451 145.565C105.259 147.343 104.417 148.987 103.086 150.181C101.755 151.375 100.03 152.034 98.2416 152.032H33.7717C32.1436 152.032 30.5627 151.483 29.2845 150.475C28.0061 149.466 27.1047 148.056 26.7256 146.473L17.8211 109.272C17.5651 108.207 17.5541 107.098 17.7888 106.027C18.0235 104.957 18.4977 103.954 19.1762 103.094C19.8544 102.234 20.7189 101.539 21.7047 101.061C22.6904 100.583 23.7718 100.335 24.8673 100.335H89.3318C90.3907 100.333 91.4373 100.565 92.3964 101.014C93.3555 101.463 94.2034 102.118 94.88 102.933L95.2031 103.334Z" stroke="black" stroke-width="1.5" stroke-miterlimit="10"/>
<path d="M85.1048 57.0341C84.6937 56.5508 84.2611 56.0862 83.8099 55.635C81.2779 53.0942 78.2688 51.0786 74.9556 49.7039C71.6424 48.3293 68.0903 47.6229 64.5031 47.625H30.7063C27.1202 47.6234 23.5688 48.3288 20.2553 49.7007C16.9419 51.0725 13.9314 53.0838 11.3958 55.6198C8.86008 58.1557 6.84904 61.1664 5.47757 64.4799C4.1061 67.7936 3.40108 71.3447 3.40285 74.9311V75.126C3.3994 77.6702 4.04744 80.1734 5.2852 82.3964C6.67613 83.8128 8.33639 84.9369 10.1683 85.7021C12.0001 86.4676 13.9666 86.8585 15.9518 86.8526H49.0865C50.0977 86.8526 51.0674 87.2542 51.7824 87.9692C52.4975 88.6843 52.8993 89.654 52.8993 90.6654C52.9006 91.6779 53.3038 92.6481 54.0202 93.3637C54.7365 94.079 55.7076 94.4808 56.7201 94.4808H56.8028L64.9837 94.2726C64.9837 94.1925 64.9677 94.1204 64.9677 94.0483C64.2604 93.8051 63.6468 93.3469 63.2127 92.7381C62.7786 92.1291 62.5455 91.3999 62.546 90.652V90.4758C62.5468 89.4647 62.9486 88.4955 63.6634 87.7805C64.3784 87.0657 65.3479 86.6636 66.3588 86.6631H74.4248C78.3903 86.6631 82.1935 85.0878 84.9975 82.2837C87.8015 79.4797 89.3768 75.6765 89.3768 71.7111C89.3907 66.5102 87.9078 61.415 85.1048 57.0341ZM26.5784 72.8538C25.2854 72.8544 24.0211 72.4712 22.9459 71.7533C21.8704 71.035 21.0323 70.014 20.5373 68.8195C20.0426 67.6249 19.9131 66.3105 20.1654 65.0422C20.4177 63.774 21.0403 62.609 21.9551 61.6948C22.8695 60.7806 24.0347 60.1585 25.303 59.9065C26.5712 59.6547 27.8857 59.7847 29.0802 60.2803C30.2745 60.7758 31.295 61.6142 32.0127 62.6899C32.7304 63.7654 33.113 65.0299 33.1119 66.323C33.1098 68.0548 32.4207 69.7152 31.1959 70.9394C29.9709 72.1639 28.3102 72.8522 26.5784 72.8538ZM47.9037 72.8538C46.6109 72.8533 45.3472 72.4693 44.2725 71.7506C43.1979 71.0318 42.3605 70.0105 41.8666 68.8157C41.3724 67.6212 41.2437 66.3067 41.4965 65.0387C41.7494 63.771 42.3728 62.6066 43.2876 61.693C44.2023 60.7793 45.3672 60.1574 46.6355 59.9062C47.9037 59.6547 49.2179 59.7852 50.4119 60.2808C51.606 60.7763 52.6264 61.615 53.3439 62.6905C54.0613 63.766 54.4436 65.0302 54.4426 66.323C54.4426 67.1811 54.2733 68.031 53.9446 68.824C53.6159 69.617 53.1343 70.3371 52.5268 70.9437C51.9197 71.5503 51.1988 72.0312 50.4055 72.3588C49.6123 72.6867 48.7621 72.8549 47.9037 72.8538ZM68.2144 72.8538C66.9216 72.8528 65.6584 72.4683 64.584 71.7492C63.5096 71.0302 62.6728 70.0087 62.1792 68.8138C61.6855 67.6193 61.557 66.3049 61.8102 65.0371C62.0635 63.7694 62.687 62.6053 63.6017 61.6922C64.5167 60.7788 65.6817 60.1572 66.9499 59.9059C68.2179 59.6549 69.5321 59.7853 70.7261 60.2811C71.9198 60.7766 72.9401 61.6153 73.6572 62.6907C74.3746 63.7662 74.757 65.0302 74.7559 66.323C74.7559 67.1814 74.5866 68.0315 74.2577 68.8245C73.929 69.6178 73.4468 70.3382 72.8394 70.9448C72.2317 71.5514 71.5105 72.032 70.717 72.3596C69.9232 72.6872 69.0728 72.8552 68.2144 72.8538Z" fill="#EEF4E8"/>
<path d="M89.377 71.7136C89.377 75.6791 87.8017 79.4823 84.9977 82.2863C82.1936 85.0903 78.3905 86.6656 74.425 86.6656H66.3643C65.3537 86.6662 64.3847 87.0677 63.67 87.7822C62.9552 88.4965 62.5528 89.4651 62.5515 90.4757V90.6519C62.551 91.3998 62.7841 92.129 63.2182 92.738C63.6524 93.3468 64.2659 93.805 64.9732 94.0482C65.3457 94.1777 65.7376 94.2426 66.132 94.2404L64.9892 94.2725L56.803 94.4807H56.7149C55.703 94.4807 54.7324 94.0792 54.0161 93.3644C53.2997 92.6496 52.8963 91.6799 52.8941 90.668C52.8941 89.6566 52.4926 88.6868 51.7773 87.9718C51.0622 87.2568 50.0925 86.8552 49.0814 86.8552H15.952C11.9865 86.8552 8.18339 85.2799 5.37933 82.4759C2.5753 79.6718 1 75.8687 1 71.9032V71.7083C1.00035 68.1243 1.70659 64.5759 3.07835 61.2649C4.45012 57.9541 6.4606 54.9458 8.99497 52.4119C11.5293 49.8781 14.538 47.8681 17.849 46.4971C21.1601 45.126 24.7091 44.4204 28.2927 44.4209H62.0789C69.3176 44.4214 76.2598 47.297 81.379 52.4151C86.4979 57.5333 89.3749 64.4747 89.377 71.7136Z" stroke="black" stroke-width="1.5" stroke-miterlimit="10"/>
<path d="M173.968 81.1964C173.952 81.1964 173.944 81.1804 173.928 81.1804C167.597 79.274 164.516 75.3812 163.181 71.6485C163.181 71.6485 163.181 71.6485 163.181 71.6325C162.137 68.7222 162.161 65.9053 162.537 64.2232C162.763 63.3323 162.906 62.4226 162.965 61.5052C163.053 58.9073 161.146 59.5427 155.694 60.6294C153.19 61.1367 151.588 60.1862 150.787 58.8352C150.709 58.7174 150.641 58.5933 150.584 58.464C150.21 57.6777 150.055 56.8052 150.135 55.9382" stroke="black" stroke-width="1.5" stroke-miterlimit="10"/>
<path d="M146.998 70.9015C146.902 70.7653 146.803 70.6345 146.707 70.5304C145.863 69.5665 144.897 69.6786 143.386 70.2634C143.007 70.4075 142.051 70.3675 141.295 70.1032C140.66 69.8762 140.184 69.4837 140.401 68.8963C140.456 68.7754 140.539 68.6691 140.642 68.5853C140.745 68.5014 140.866 68.4424 140.996 68.413C141.248 68.3495 141.503 68.2985 141.76 68.2609C144.352 67.6815 143.773 64.6804 143.458 62.798C142.694 58.0615 143.709 52.4865 146.942 48.7939C150.504 44.7328 156.33 43.8864 161.251 45.7447C165.579 47.3788 169.65 50.9246 170.494 55.6638C170.494 55.6798 170.494 55.6958 170.51 55.7119C170.526 55.7279 170.51 55.7519 170.51 55.7679C171.01 58.729 170.51 61.9383 169.931 64.8673C169.584 66.6028 169.715 68.0206 170.198 69.1927C171.712 73.0295 176.819 74.3672 180.937 76.2655C190.679 80.7538 198.617 88.4274 203.968 97.759C208.192 105.16 209.193 109.713 208.961 112.521C208.638 116.294 206.08 116.908 206.08 116.908C203.917 118.187 200.593 116.812 199.926 114.414C199.916 114.389 199.91 114.362 199.91 114.334C199.376 112.281 198.334 109.643 196.935 106.757" stroke="black" stroke-width="1.5" stroke-miterlimit="10"/>
<path d="M150.125 55.9382C150.125 57.3667 149.452 58.7764 147.989 59.3772C146.344 60.0554 145.677 61.8416 145.436 63.5798C145.1 66.1251 145.648 68.7083 146.988 70.8982C148.229 72.9595 150.25 75.2317 153.113 75.2317C158.356 75.2317 160.605 72.7032 160.605 72.7032" stroke="black" stroke-width="1.5" stroke-miterlimit="10"/>
<path d="M155.569 64.4C156.062 64.4 156.461 64.0009 156.461 63.5082C156.461 63.0159 156.062 62.6165 155.569 62.6165C155.076 62.6165 154.677 63.0159 154.677 63.5082C154.677 64.0009 155.076 64.4 155.569 64.4Z" fill="black"/>
<path d="M147.724 64.9203C148.217 64.9203 148.616 64.5211 148.616 64.0285C148.616 63.5361 148.217 63.1367 147.724 63.1367C147.232 63.1367 146.833 63.5361 146.833 64.0285C146.833 64.5211 147.232 64.9203 147.724 64.9203Z" fill="black"/>
<path d="M151.572 62.6697C151.572 62.6697 151.126 66.1914 151.305 66.6747C151.484 67.1579 152.6 66.6053 152.6 66.6053" stroke="black" stroke-width="1.5" stroke-miterlimit="10"/>
<path d="M153.225 69.6862C155.134 70.3884 157.104 69.4939 157.681 67.7771" stroke="black" stroke-width="1.5" stroke-miterlimit="10"/>
<path d="M160.185 64.7968C161.48 62.9635 161.007 60.4025 159.13 59.0757C157.252 57.7493 154.68 58.1599 153.385 59.9932C152.09 61.8261 152.563 64.3874 154.44 65.7139C156.318 67.0404 158.89 66.6297 160.185 64.7968Z" stroke="black" stroke-width="1.5" stroke-miterlimit="10"/>
<path d="M149.757 65.3214C151.051 63.4882 150.579 60.9269 148.702 59.6004C146.824 58.274 144.252 58.6846 142.957 60.5178C141.662 62.3508 142.134 64.9121 144.012 66.2386C145.89 67.565 148.462 67.1544 149.757 65.3214Z" stroke="black" stroke-width="1.5" stroke-miterlimit="10"/>
<path d="M146.283 60.0885C147.024 60.0864 147.739 60.3649 148.284 60.8679C148.829 61.3712 149.163 62.0616 149.22 62.8012C149.249 63.1686 149.205 63.5382 149.088 63.8877C148.972 64.2372 148.786 64.5597 148.542 64.8358C148.295 65.1156 147.994 65.3425 147.657 65.503C147.32 65.6637 146.954 65.7545 146.582 65.7703H146.432C145.69 65.7724 144.975 65.4937 144.43 64.9898C143.885 64.486 143.551 63.7947 143.495 63.0549C143.466 62.6875 143.512 62.3177 143.628 61.9682C143.745 61.6187 143.932 61.2962 144.176 61.0203C144.423 60.7413 144.723 60.5149 145.06 60.3542C145.396 60.1937 145.761 60.1024 146.133 60.0858H146.283V60.0885ZM146.283 59.4824H146.104C145.654 59.5024 145.212 59.613 144.806 59.8068C144.399 60.0009 144.036 60.2746 143.737 60.6118C143.438 60.949 143.21 61.3429 143.066 61.7698C142.922 62.1967 142.866 62.6482 142.9 63.0976C142.972 63.9878 143.376 64.8182 144.032 65.4245C144.688 66.0309 145.547 66.3686 146.44 66.371H146.619C147.069 66.3507 147.511 66.2405 147.917 66.0463C148.324 65.8525 148.687 65.5786 148.986 65.2416C149.285 64.9044 149.513 64.5106 149.657 64.0836C149.801 63.6567 149.857 63.2049 149.823 62.7558C149.751 61.8657 149.347 61.0353 148.691 60.4289C148.035 59.8226 147.176 59.4848 146.283 59.4824Z" fill="white"/>
<path d="M152.667 62.6133L150.478 62.7254" stroke="black" stroke-width="4.52" stroke-miterlimit="10"/>
<path opacity="0.53" d="M159.664 64.4287C160.76 62.8763 160.361 60.7072 158.771 59.5842C157.181 58.4612 155.003 58.8091 153.907 60.3615C152.81 61.9141 153.209 64.0829 154.799 65.2062C156.389 66.3292 158.567 65.9813 159.664 64.4287Z" fill="white"/>
<path opacity="0.53" d="M149.235 64.9532C150.332 63.4009 149.932 61.2318 148.343 60.1088C146.753 58.9855 144.575 59.3337 143.478 60.886C142.381 62.4386 142.781 64.6074 144.371 65.7304C145.961 66.8537 148.139 66.5055 149.235 64.9532Z" fill="white"/>
<path d="M154.674 75.2322L159.536 86.7826C159.536 86.7826 168.916 89.3058 171.196 80.4307" stroke="black" stroke-width="1.5" stroke-miterlimit="10"/>
<path d="M62.4234 135.095C66.0955 133.937 68.0176 129.654 66.7165 125.528C65.4155 121.402 61.384 118.995 57.7122 120.153C54.0402 121.311 52.1181 125.594 53.4191 129.72C54.72 133.847 58.7514 136.253 62.4234 135.095Z" fill="#EEF4E8"/>
<path d="M153.377 158.49C153.273 149.089 151.615 139.8 150.851 136.009" stroke="black" stroke-width="1.5" stroke-miterlimit="10"/>
</svg>
