<svg width="190" height="191" viewBox="0 0 190 191" fill="none" xmlns="http://www.w3.org/2000/svg">
<path d="M137.616 128.136C137.384 128.109 137.153 128.069 136.924 128.018" stroke="#CCDDE2" stroke-width="5.21" stroke-miterlimit="10"/>
<path d="M44.6129 55.3169C44.6129 55.3169 37.0661 17.9496 71.3269 10.6631C73.3436 10.2272 75.4007 10.0049 77.4639 10C84.0132 10 90.0324 12.4187 95.0674 17.2789C97.9839 20.1004 99.9941 23.5489 102.166 26.8625C103.528 28.9525 104.965 30.9855 106.726 32.7943C111.594 37.7932 118.189 39.9193 124.601 42.2943C130.24 44.371 135.735 46.6434 139.778 51.2243C144.923 57.0459 150.228 63.181 152.947 70.5777C154.076 73.6756 154.937 76.8648 155.52 80.11C156.992 88.185 157.051 96.4329 155.265 104.457C153.335 113.141 148.292 121.319 141.661 127.205" stroke="#C5EE9B" stroke-opacity="0.3" stroke-width="1.5" stroke-miterlimit="10"/>
<path d="M143.371 116.573L141.511 126.975C141.459 127.267 141.306 127.531 141.079 127.721C140.852 127.911 140.565 128.015 140.268 128.015H130.546C130.247 128.015 129.958 127.909 129.729 127.715C129.501 127.522 129.349 127.254 129.3 126.958L127.59 116.573H143.371Z" stroke="#C5EE9B" stroke-opacity="0.3" stroke-width="1.5" stroke-miterlimit="10"/>
<path d="M145.14 115.412C145.114 115.729 144.97 116.024 144.737 116.239C144.504 116.454 144.198 116.573 143.88 116.573H127.107C126.794 116.573 126.491 116.457 126.259 116.246C126.027 116.035 125.881 115.745 125.851 115.433C125.834 115.258 125.854 115.081 125.909 114.914C125.964 114.747 126.054 114.593 126.172 114.462C126.29 114.332 126.435 114.227 126.596 114.156C126.757 114.085 126.931 114.048 127.107 114.048H143.88C144.055 114.048 144.227 114.085 144.387 114.155C144.546 114.225 144.69 114.327 144.808 114.455C144.926 114.583 145.017 114.734 145.074 114.899C145.131 115.064 145.154 115.238 145.14 115.412Z" stroke="#C5EE9B" stroke-opacity="0.3" stroke-width="1.5" stroke-miterlimit="10"/>
<path d="M136.018 114.046C136.018 113.514 137.373 106.877 136.25 100.991C135.634 97.7613 134.272 94.7612 131.534 93.1177" stroke="#C5EE9B" stroke-opacity="0.3" stroke-width="1.5" stroke-miterlimit="10"/>
<path d="M136.246 100.991C136.246 100.991 136.556 96.5199 140.426 96.2102" stroke="#C5EE9B" stroke-opacity="0.3" stroke-width="1.5" stroke-miterlimit="10"/>
<path d="M136.66 107.814C137.76 107.044 139.085 106.661 140.426 106.727" stroke="#C5EE9B" stroke-opacity="0.3" stroke-width="1.5" stroke-miterlimit="10"/>
<path d="M136.66 104.639C136.66 104.639 133.854 101.314 129.368 103.944" stroke="#C5EE9B" stroke-opacity="0.3" stroke-width="1.5" stroke-miterlimit="10"/>
<path d="M134.684 103.302C134.684 103.302 128.363 97.5257 127.126 105.335C127.126 105.335 128.905 106.496 131.534 105.335C134.164 104.174 134.684 103.302 134.684 103.302Z" stroke="#C5EE9B" stroke-opacity="0.3" stroke-width="1.5" stroke-miterlimit="10"/>
<path d="M137.641 97.5731C137.641 97.5731 137.411 94.9739 140.426 94.1227C143.441 93.2715 145.144 96.8302 145.144 96.8302C145.144 96.8302 142.82 99.399 137.641 97.5731Z" stroke="#C5EE9B" stroke-opacity="0.3" stroke-width="1.5" stroke-miterlimit="10"/>
<path d="M138.336 106.723C138.336 106.723 138.234 104.095 141.739 104.633C145.245 105.171 145.813 108.165 145.813 108.165C145.813 108.165 140.069 110.27 138.336 106.995" stroke="#C5EE9B" stroke-opacity="0.3" stroke-width="1.5" stroke-miterlimit="10"/>
<path d="M134.114 95.5475C134.114 95.7375 131.477 95.3119 131.31 95.2625C130.033 94.8825 129.127 93.9971 128.53 92.8267C128.34 92.4638 127.284 90.4289 127.58 90.0755C127.584 90.0755 133.856 88.0577 134.114 95.5475Z" stroke="#C5EE9B" stroke-opacity="0.3" stroke-width="1.5" stroke-miterlimit="10"/>
<path d="M117.195 65.949L111.628 72.1715H107.809L102.023 75.867C100.833 75.6531 99.6101 75.6901 98.4346 75.9761C97.2589 76.262 96.1561 76.7906 95.1966 77.5276C92.6677 79.4276 84.8758 87.1302 80.9238 87.9776C79.9738 85.7109 78.7521 83.5468 78.0738 82.5854L105.719 69.2854L106.986 65.949L115.002 62.719L117.195 65.949Z" fill="#B7CF9E" fill-opacity="0.4"/>
<path d="M76.2669 128.045L64.6446 127.957C60.6626 127.93 56.7641 126.813 53.3719 124.727C55.7575 124.725 58.1363 124.47 60.4684 123.967C60.6299 123.967 60.7971 123.967 60.9643 123.967C63.6889 123.852 66.0943 122.007 67.6751 119.787C69.2559 117.568 70.2116 114.971 71.3763 112.499C72.541 110.027 74.0154 107.588 76.303 106.094C76.5215 105.95 76.7476 105.819 76.9737 105.693C80.4258 105.472 83.8878 105.453 87.342 105.636C84.2602 107.09 73.4682 113.253 76.2669 128.045Z" fill="#B0CB93"/>
<path d="M89.0919 97.5483C89.0919 97.5483 87.9519 101.02 91.5714 102.38C95.1909 103.74 94.8622 102.327 94.8584 104.749C94.8584 104.749 95.588 105.798 94.0832 105.832C92.5784 105.867 86.5649 104.924 84.2868 105.224C82.0087 105.525 77.8268 105.34 81.8928 104.145C85.9588 102.95 88.6131 100.98 89.0919 97.5483Z" fill="#B0CB93"/>
<path d="M67.829 85.519C68.5221 85.7123 69.1412 86.1094 69.6055 86.659C70.4529 87.609 71.838 88.711 72.0565 91.5762C72.275 94.4414 73.4492 95.3306 73.7076 95.5776C73.966 95.8246 73.776 96.7176 72.0812 96.5599C70.3864 96.4022 65.4502 95.6289 65.6687 89.8358C65.6687 89.8282 65.5205 86.5184 67.829 85.519Z" fill="#2E2E2E"/>
<path d="M60.9054 124.091C58.5733 124.594 56.1945 124.848 53.8089 124.851C53.7785 124.828 53.7424 124.815 53.7139 124.792C51.7223 124.742 49.7383 124.528 47.7821 124.152C39.9484 122.656 19.3638 89.6839 36.8514 79.4828C36.8514 79.4828 37.3834 79.3213 38.3011 79.1028C39.3005 80.3701 40.6913 81.36 42.5134 81.9661C41.815 82.5779 41.2111 83.2898 40.7217 84.0789C39.3575 86.2658 39.0231 88.9467 39.1105 91.5269C39.2853 96.9913 41.1796 102.268 43.6211 107.164C46.4046 112.754 50.0336 118.087 55.1047 121.731C56.8261 122.955 58.8059 124.019 60.9054 124.091Z" fill="#B7CF9E" fill-opacity="0.4"/>
<path d="M47.6643 53.1962C47.6643 53.1962 47.5693 53.656 48.7625 53.7415C49.9557 53.827 55.0192 54.0569 55.5664 59.6315C56.1136 65.2061 53.18 72.2285 54.8976 72.6503C56.6152 73.0721 60.343 74.0563 61.445 73.3723C62.547 72.6883 68.665 68.7648 75.5316 71.4191C75.5316 71.4191 76.6146 72.4793 76.6412 69.4811C76.6678 66.4829 77.0611 61.6303 74.9958 62.2953C72.9305 62.9603 71.5758 61.8374 70.9773 64.4651C70.3788 67.0928 65.1025 64.8128 65.1025 64.8128C65.1025 64.8128 61.7813 62.0597 59.982 56.7397C58.1827 51.4197 53.5961 51.5147 52.1027 51.7294C50.6093 51.9441 47.6643 53.1962 47.6643 53.1962Z" fill="#2E2E2E"/>
<path d="M126.163 169.6C124.865 168.893 124.894 167.89 124.158 167.006L123.089 169.269C122.99 169.803 123.05 170.354 123.261 170.853C123.472 171.353 123.825 171.78 124.276 172.081L134.46 180.652C134.764 180.857 135.119 180.976 135.485 180.995C135.851 181.014 136.216 180.933 136.54 180.761C136.864 180.589 137.135 180.332 137.324 180.017C137.513 179.703 137.614 179.343 137.614 178.976C137.615 178.755 137.578 178.536 137.506 178.327L117.284 118.231C116.726 116.57 115.845 115.035 114.692 113.714C113.539 112.394 112.137 111.314 110.566 110.536C104.896 107.724 93.4961 104.166 78.0016 105.52" stroke="black" stroke-width="1.5" stroke-linecap="round" stroke-linejoin="round"/>
<path d="M124.158 167.012C117.024 157.261 106.678 141.085 104.685 134.86C102.595 128.376 96.7356 128.121 91.0736 128.26L65.0816 128.07C61.0625 128.045 57.1286 126.91 53.7139 124.79" stroke="black" stroke-width="1.5" stroke-linecap="round" stroke-linejoin="round"/>
<path d="M109.481 110.02C109.437 104.555 109.466 93.4898 109.494 84.7498C109.517 77.3759 101.079 73.0762 95.1909 77.5298C92.6335 79.4526 89.7987 81.4286 86.7302 84.765" stroke="black" stroke-width="1.5" stroke-linecap="round" stroke-linejoin="round"/>
<path d="M95.8103 97.1514C95.8103 97.1514 94.2561 101.51 95.0161 105.962" stroke="black" stroke-width="1.5" stroke-linecap="round" stroke-linejoin="round"/>
<path d="M73.4891 71.0796H73.4682C67.7416 70.0441 63.5882 71.7123 60.7534 73.8707" stroke="black" stroke-width="1.5" stroke-linecap="round" stroke-linejoin="round"/>
<path d="M38.3011 79.0955C37.3834 79.3197 36.8514 79.4755 36.8514 79.4755C19.3714 89.6766 39.9484 122.649 47.7821 124.144C49.7383 124.52 51.7223 124.735 53.7139 124.785C58.3841 124.916 61.445 124.106 61.445 124.106" stroke="black" stroke-width="1.5" stroke-linecap="round" stroke-linejoin="round"/>
<path d="M50.6967 88.2251L61.445 110.814L63.7668 107.717L53.9989 88.2251H50.6967Z" stroke="black" stroke-width="1.5" stroke-linecap="round" stroke-linejoin="round"/>
<path d="M56.3948 93.0052L66.4135 88.1887V88.1811L69.6055 86.6516" stroke="black" stroke-width="1.5" stroke-linecap="round" stroke-linejoin="round"/>
<path d="M102.018 75.8673L107.811 72.1718H111.63L117.197 65.9493L115.004 62.7212L106.988 65.9493L105.713 69.28L78.0662 82.5857" stroke="black" stroke-width="1.5" stroke-linecap="round" stroke-linejoin="round"/>
<path d="M81.3741 88.348L86.7302 84.7627" stroke="black" stroke-width="1.5" stroke-linecap="round" stroke-linejoin="round"/>
<path d="M72.6588 94.1775L69.7309 96.1383L60.9206 102.034" stroke="black" stroke-width="1.5" stroke-linecap="round" stroke-linejoin="round"/>
<path d="M82.212 76.901C82.0733 72.493 80.2588 68.0622 78.4747 64.0912C78.1637 63.3973 77.8181 62.7194 77.4392 62.0601" stroke="black" stroke-width="1.5" stroke-linecap="round" stroke-linejoin="round"/>
<path d="M69.7309 54.8076C71.268 59.2821 73.3884 67.6611 66.9094 65.6376C58.1694 62.9054 62.7199 49.5123 50.6967 51.931C50.6707 51.9384 50.6439 51.943 50.6169 51.9443C50.6119 51.9428 50.6066 51.9428 50.6017 51.9443H50.5865" stroke="black" stroke-width="1.5" stroke-linecap="round" stroke-linejoin="round"/>
<path d="M46.6744 53.9034C51.3883 53.1681 59.3094 54.2606 53.997 72.1643" stroke="black" stroke-width="1.5" stroke-linecap="round" stroke-linejoin="round"/>
<path d="M76.3676 71.771C76.9154 68.6242 76.8016 65.3978 76.0332 62.2976" stroke="black" stroke-width="1.5" stroke-linecap="round" stroke-linejoin="round"/>
<path d="M94.8033 102.929C94.8033 102.929 88.3775 102.8 88.6967 99.0833" stroke="black" stroke-width="1.5" stroke-linecap="round" stroke-linejoin="round"/>
<path d="M88.5884 105.413C88.5884 105.413 73.4454 110.944 76.7058 128.156" stroke="black" stroke-width="1.5" stroke-linecap="round" stroke-linejoin="round"/>
<path d="M67.829 85.519C66.9419 86.1206 66.2843 87.0045 65.9632 88.027C65.523 89.5317 65.6121 91.1419 66.2153 92.5888C66.8188 94.0358 67.8999 95.2322 69.2787 95.9785C70.5688 96.634 72.0128 96.7499 73.3086 96.1818C73.54 96.0787 73.7597 95.9512 73.9641 95.8018" stroke="black" stroke-width="1.5" stroke-linecap="round" stroke-linejoin="round"/>
<path d="M86.7283 84.7627C87.4706 86.4974 88.0815 88.2851 88.5561 90.1112C88.5783 90.1731 88.5954 90.2366 88.6074 90.3012C88.6815 90.5862 88.7461 90.8712 88.8126 91.1676C88.8848 91.5115 88.957 91.8459 89.0235 92.1879C89.0387 92.2981 89.0596 92.4064 89.0748 92.5166C89.0778 92.5362 89.0778 92.5561 89.0748 92.5755C89.0881 92.6553 89.1033 92.7351 89.1185 92.8225C89.1318 92.9612 89.1546 93.1075 89.1831 93.2595C89.1793 93.2764 89.1793 93.2939 89.1831 93.3108" stroke="black" stroke-width="2" stroke-linecap="round" stroke-linejoin="round"/>
<path d="M65.1006 74.9795C67.3806 72.8021 70.3845 71.0389 73.4606 71.075H73.4815C73.7228 71.075 73.9774 71.0883 74.2187 71.1187C76.2726 71.3372 78.0187 72.6995 79.4931 74.1416C81.2126 75.8201 82.736 77.6883 84.0341 79.7105" stroke="black" stroke-width="1.5" stroke-linecap="round" stroke-linejoin="round"/>
<path d="M89.0843 92.517C89.0873 92.5364 89.0873 92.5563 89.0843 92.5759C89.0976 92.6557 89.1128 92.7355 89.128 92.8229C89.4339 95.2492 89.4187 97.4874 88.3775 99.7313C87.4959 101.631 85.5275 102.828 83.6408 103.548C81.3304 104.432 78.8091 104.861 76.74 106.208C74.46 107.702 72.9799 110.143 71.8133 112.613C70.6467 115.083 69.7005 117.679 68.1121 119.902C66.5237 122.125 64.1221 123.968 61.4013 124.082C59.1213 124.169 56.9553 123.046 55.0971 121.714C50.026 118.07 46.397 112.737 43.6135 107.147C41.172 102.251 39.2777 96.9744 39.1029 91.51C39.0155 88.9298 39.3499 86.2489 40.7141 84.062C41.2035 83.2729 41.8074 82.5608 42.5058 81.9492" stroke="black" stroke-width="1.5" stroke-linecap="round" stroke-linejoin="round"/>
<path d="M76.7058 128.156H30.475" stroke="black" stroke-width="1.5" stroke-linecap="round" stroke-linejoin="round"/>
<path d="M148.342 128.156H120.651" stroke="black" stroke-width="1.5" stroke-linecap="round" stroke-linejoin="round"/>
<path d="M87.3268 42.2739V53.5713C87.3291 54.6704 87.004 55.7455 86.393 56.6592C85.7817 57.5729 84.9123 58.2837 83.8954 58.7013C81.1917 59.8033 77.6121 61.0421 71.6936 61.253V53.197C73.301 53.8411 75.1554 53.4307 76.4436 52.2698C76.7191 52.0228 76.9889 51.7834 77.2416 51.5725C78.2315 50.7156 79.0352 50.1627 79.4399 50.3166C80.2797 50.6263 80.3899 50.6263 80.9067 47.9055C81.2867 45.9466 84.4559 43.7806 85.2197 40.1801C85.377 39.4309 85.4207 38.6622 85.3489 37.9001C85.2585 36.9655 85.0352 36.0487 84.6858 35.1774C84.1783 33.874 83.4734 32.6563 82.5958 31.5674L84.2393 33.2508C84.3913 33.4104 84.5376 33.5681 84.6725 33.7334C86.6884 36.0856 87.3268 39.118 87.3268 42.2739Z" fill="#B0CB93"/>
<path d="M85.2976 39.7385C85.2786 39.8905 85.2501 40.0387 85.2216 40.1793C84.8568 40.1546 83.8137 40.3009 82.6167 40.9944C81.7794 41.477 81.0407 42.1131 80.4393 42.8697C79.5254 44.0097 75.1364 48.982 71.4941 53.0936L70.1451 54.6136C69.9467 54.8372 69.702 55.0147 69.4279 55.1336C69.1537 55.2526 68.8569 55.3101 68.5582 55.3022C68.2593 55.2942 67.966 55.2208 67.6987 55.0875C67.4311 54.9541 67.1961 54.7639 67.0101 54.53L58.0478 43.301C57.4575 42.5543 57.1746 41.6104 57.2565 40.6619C57.3383 39.7136 57.779 38.8322 58.4886 38.1976L66.5731 30.9776L66.8961 30.7097C67.0538 30.5938 67.2115 30.4817 67.3673 30.3734C72.4194 27.1776 77.3879 27.512 81.0473 29.9763L82.6015 31.5704C83.4791 32.6595 84.1842 33.877 84.6915 35.1804C85.3736 36.9227 85.4971 38.4237 85.2976 39.7385Z" fill="#B0CB93"/>
<path d="M82.5977 31.5726L81.0435 29.9785L80.9561 29.8892C80.9696 29.8951 80.9818 29.9034 80.9922 29.9139L81.1385 30.0431C81.6523 30.4949 82.1271 30.9895 82.5578 31.5213C82.5692 31.5384 82.5863 31.5555 82.5977 31.5726Z" fill="#3FBDF1"/>
<path d="M82.0961 30.7688C82.1096 30.7745 82.1219 30.7829 82.1322 30.7935C82.702 31.2803 83.226 31.8184 83.6978 32.4009C83.7092 32.418 83.7282 32.4351 83.7396 32.4522L82.0961 30.7688Z" fill="#3FBDF1"/>
<path d="M67.6808 57.4013C68.6308 56.3278 70.0045 54.785 71.4808 53.1016C75.1364 48.99 79.5254 44.0101 80.4393 42.8701C82.3393 40.5236 84.6402 40.136 85.2216 40.1721" stroke="black" stroke-width="1.5" stroke-linecap="round" stroke-linejoin="round"/>
<path d="M71.4884 53.1016C71.5532 53.1368 71.6199 53.1683 71.6879 53.1966C73.2953 53.8407 75.1497 53.4303 76.4379 52.2694C77.7926 51.0496 78.925 50.1224 79.4342 50.3162C80.274 50.6259 80.3842 50.6259 80.901 47.9051C81.281 45.9462 84.4502 43.7802 85.214 40.1797C85.5123 38.7585 85.442 37.1169 84.6801 35.1808C84.172 33.8776 83.4671 32.6603 82.5901 31.5708C82.5768 31.5537 82.5597 31.5366 82.5483 31.5195C82.0765 30.9372 81.5525 30.3991 80.9827 29.9121C80.9723 29.9017 80.9601 29.8933 80.9466 29.8874C76.9452 26.4921 70.9393 25.8822 64.9676 30.3624C64.8612 30.446 64.7567 30.5334 64.656 30.6208L56.5734 37.8408C55.8638 38.4741 55.423 39.3545 55.3411 40.3021C55.259 41.2498 55.5423 42.1928 56.1326 42.9385L67.6713 57.3918" stroke="black" stroke-width="1.5" stroke-linecap="round" stroke-linejoin="round"/>
<path d="M79.9567 43.5578C79.9567 43.5578 80.7623 43.4381 81.5698 44.1715" stroke="black" stroke-width="1.5" stroke-linecap="round" stroke-linejoin="round"/>
<path d="M79.8343 45.4712C80.1494 45.1041 80.2181 44.6464 79.9881 44.4488C79.7578 44.2514 79.3158 44.389 79.0008 44.756C78.686 45.1231 78.617 45.5808 78.8473 45.7784C79.0774 45.9758 79.5193 45.8383 79.8343 45.4712Z" fill="black"/>
<path d="M80.9561 29.8892L82.5996 31.5726L84.2412 33.256C86.5934 35.6671 87.3268 38.9009 87.3268 42.2734V54.9901C87.3291 56.0892 87.004 57.1642 86.393 58.0779C85.7817 58.9916 84.9123 59.7024 83.8954 60.1201C81.1917 61.2221 77.6121 62.4609 71.6936 62.6718V53.1965" stroke="black" stroke-width="1.5" stroke-linecap="round" stroke-linejoin="round"/>
<path d="M77.2397 51.5699C77.2397 51.5699 75.923 52.0126 75.5297 50.2532" stroke="black" stroke-width="1.5" stroke-linecap="round" stroke-linejoin="round"/>
<path d="M60.9586 48.9827L59.3512 50.9245C59.2102 51.0938 59.0297 51.2256 58.8255 51.3086C58.6214 51.3915 58.3999 51.4226 58.1808 51.3995C57.0826 51.2931 55.9825 51.2437 54.8862 51.2437C38.3087 51.2437 27.4217 81.2732 45.7776 82.5785C63.7687 83.8534 70.9184 83.0668 72.1876 92.4148C72.4859 94.6169 73.8197 96.7848 76.3182 95.9431C79.4304 94.9 81.4045 91.1399 80.9105 87.9783C80.407 84.7635 77.9807 82.075 75.524 80.1218C70.6942 76.2971 64.7833 74.6726 58.8515 73.4718C56.9287 73.0918 50.8145 72.5826 52.7525 69.2804" stroke="black" stroke-width="1.5" stroke-linecap="round" stroke-linejoin="round"/>
<path d="M78.8775 101.23H78.3569V100.584H78.8775C79.0538 100.584 79.2231 100.514 79.3478 100.39C79.4724 100.265 79.5425 100.096 79.5425 99.9193V95.4866L84.2089 93.4878V98.4278C84.2089 98.7806 84.0689 99.1188 83.8194 99.3683C83.5699 99.6178 83.2317 99.7578 82.8789 99.7578H82.269V99.1099H82.8789C83.0598 99.1099 83.2333 99.0381 83.3613 98.9102C83.4892 98.7821 83.561 98.6087 83.561 98.4278V94.4663L80.1961 95.9141V99.9193C80.1959 100.092 80.1615 100.263 80.095 100.422C80.0287 100.582 79.9314 100.727 79.8089 100.848C79.6863 100.97 79.541 101.067 79.3812 101.132C79.2214 101.198 79.0502 101.231 78.8775 101.23Z" fill="#C5EE9B" fill-opacity="0.3"/>
<path d="M78.0168 101.608C78.404 101.608 78.7179 101.294 78.7179 100.907C78.7179 100.52 78.404 100.206 78.0168 100.206C77.6296 100.206 77.3157 100.52 77.3157 100.907C77.3157 101.294 77.6296 101.608 78.0168 101.608Z" fill="#C5EE9B" fill-opacity="0.3"/>
<path d="M82.288 100.208C82.6752 100.208 82.9891 99.894 82.9891 99.5068C82.9891 99.1197 82.6752 98.8057 82.288 98.8057C81.9008 98.8057 81.5869 99.1197 81.5869 99.5068C81.5869 99.894 81.9008 100.208 82.288 100.208Z" fill="#C5EE9B" fill-opacity="0.3"/>
<g opacity="0.54">
<path opacity="0.54" d="M121.635 61.425L120.828 61.7632L120.406 60.7581L121.215 60.4199C121.489 60.3049 121.707 60.0858 121.819 59.8107C121.932 59.5358 121.93 59.2272 121.816 58.9531L118.747 51.6248L119.579 51.6381C119.72 51.6381 123.041 51.7274 125.108 54.4881L124.236 55.1417C123.085 53.6084 121.437 53.0517 120.436 52.8503L122.819 58.5503C123.039 59.0887 123.039 59.6925 122.817 60.2306C122.596 60.7689 122.171 61.1979 121.635 61.425Z" fill="#C5EE9B"/>
<path opacity="0.54" d="M120.087 62.6638C120.738 62.6638 121.267 62.1354 121.267 61.4839C121.267 60.8322 120.738 60.304 120.087 60.304C119.435 60.304 118.907 60.8322 118.907 61.4839C118.907 62.1354 119.435 62.6638 120.087 62.6638Z" fill="#C5EE9B"/>
</g>
<g opacity="0.46">
<path opacity="0.46" d="M94.4461 68.1153H93.5664V67.0228H94.4461C94.7442 67.0223 95.0301 66.9037 95.2408 66.6928C95.4517 66.4821 95.5703 66.1961 95.5709 65.898V58.4025L103.462 55.03V63.39C103.461 63.9857 103.223 64.5566 102.802 64.9777C102.381 65.3987 101.81 65.6353 101.214 65.6358H100.182V64.53H101.214C101.365 64.53 101.515 64.5002 101.655 64.4422C101.795 64.3843 101.922 64.2994 102.029 64.1922C102.137 64.085 102.221 63.9579 102.279 63.8181C102.337 63.6781 102.367 63.5282 102.367 63.3767V56.6773L96.6672 59.1245V65.898C96.667 66.1895 96.6092 66.4779 96.4975 66.7471C96.3858 67.0164 96.222 67.2607 96.0159 67.4667C95.8095 67.6726 95.5648 67.8358 95.2954 67.9472C95.0261 68.0585 94.7375 68.1155 94.4461 68.1153Z" fill="#C5EE9B"/>
<path opacity="0.46" d="M92.9869 68.7522C93.6407 68.7522 94.1706 68.2221 94.1706 67.5685C94.1706 66.9147 93.6407 66.3848 92.9869 66.3848C92.3331 66.3848 91.8032 66.9147 91.8032 67.5685C91.8032 68.2221 92.3331 68.7522 92.9869 68.7522Z" fill="#C5EE9B"/>
<path opacity="0.46" d="M100.213 66.3847C100.866 66.3847 101.396 65.8548 101.396 65.201C101.396 64.5472 100.866 64.0173 100.213 64.0173C99.5588 64.0173 99.0289 64.5472 99.0289 65.201C99.0289 65.8548 99.5588 66.3847 100.213 66.3847Z" fill="#C5EE9B"/>
</g>
<path d="M129.45 76.9065L129.089 77.3321L128.561 76.8799L128.922 76.4543C128.982 76.3831 129.028 76.3004 129.057 76.2113C129.086 76.1222 129.097 76.0283 129.089 75.9349C129.082 75.8416 129.056 75.7506 129.013 75.6673C128.97 75.5839 128.911 75.5098 128.84 75.4492L125.215 72.3712L126.82 67.1633L130.861 70.5947C131.149 70.8398 131.329 71.189 131.359 71.5658C131.39 71.9426 131.271 72.3163 131.027 72.6049L130.601 73.1046L130.073 72.6543L130.497 72.1565C130.559 72.0834 130.606 71.9986 130.636 71.9071C130.665 71.8157 130.676 71.7192 130.669 71.6234C130.661 71.5276 130.634 71.4343 130.591 71.3486C130.547 71.2631 130.486 71.1872 130.413 71.1248L127.183 68.3736L126.022 72.1375L129.298 74.9191C129.438 75.0396 129.554 75.1866 129.638 75.3518C129.721 75.5167 129.772 75.6968 129.786 75.8813C129.8 76.066 129.778 76.2516 129.72 76.4275C129.662 76.6035 129.57 76.7663 129.45 76.9065Z" fill="#B0CB93" fill-opacity="0.7"/>
<path d="M128.587 78.1377C129.002 78.1377 129.338 77.8016 129.338 77.3872C129.338 76.9726 129.002 76.6367 128.587 76.6367C128.173 76.6367 127.837 76.9726 127.837 77.3872C127.837 77.8016 128.173 78.1377 128.587 78.1377Z" fill="#B0CB93" fill-opacity="0.7"/>
<path d="M130.409 73.6687C130.824 73.6687 131.16 73.3328 131.16 72.9182C131.16 72.5038 130.824 72.1677 130.409 72.1677C129.995 72.1677 129.659 72.5038 129.659 72.9182C129.659 73.3328 129.995 73.6687 130.409 73.6687Z" fill="#B0CB93" fill-opacity="0.7"/>
<path d="M143.548 87.8259L142.493 87.4725L142.934 86.1596L143.989 86.5149C144.166 86.5745 144.353 86.5987 144.539 86.5859C144.726 86.5734 144.908 86.524 145.076 86.441C145.243 86.3578 145.392 86.2426 145.515 86.1016C145.638 85.9608 145.732 85.7971 145.792 85.62L148.816 76.6292L159.646 75.7571L156.274 85.7834C156.032 86.4989 155.516 87.0893 154.839 87.4244C154.162 87.7598 153.38 87.8124 152.664 87.5713L151.446 87.1552L151.887 85.8423L153.126 86.2603C153.493 86.3828 153.893 86.3551 154.24 86.1831C154.587 86.0112 154.852 85.7089 154.976 85.3426L157.68 77.3056L149.844 77.9364L147.11 86.0627C146.992 86.4125 146.806 86.7355 146.563 87.0133C146.32 87.2912 146.025 87.5187 145.694 87.6822C145.363 87.846 145.004 87.9429 144.635 87.9676C144.267 87.9923 143.897 87.9441 143.548 87.8259Z" fill="#B0CB93" fill-opacity="0.7"/>
<path d="M142.02 88.0824C142.848 88.0824 143.519 87.4112 143.519 86.5833C143.519 85.7553 142.848 85.0842 142.02 85.0842C141.192 85.0842 140.521 85.7553 140.521 86.5833C140.521 87.4112 141.192 88.0824 142.02 88.0824Z" fill="#B0CB93" fill-opacity="0.7"/>
<path d="M151.646 88.1581C152.473 88.1581 153.145 87.487 153.145 86.659C153.145 85.8312 152.473 85.1599 151.646 85.1599C150.818 85.1599 150.146 85.8312 150.146 86.659C150.146 87.487 150.818 88.1581 151.646 88.1581Z" fill="#B0CB93" fill-opacity="0.7"/>
<path d="M118.627 89.23L118.042 88.907L118.443 88.1793L119.028 88.5023C119.227 88.6117 119.46 88.6379 119.678 88.5752C119.896 88.5125 120.079 88.3661 120.189 88.1679L123.115 82.865L123.495 83.3704C123.56 83.4559 125.08 85.4813 124.415 88.0178L123.611 87.805C123.882 86.6722 123.729 85.4796 123.182 84.4515L120.902 88.5688C120.685 88.9556 120.326 89.2418 119.9 89.3655C119.474 89.4893 119.017 89.4405 118.627 89.23Z" fill="#B0CB93" fill-opacity="0.7"/>
<path d="M117.86 89.2299C118.357 89.2299 118.76 88.8265 118.76 88.3293C118.76 87.8319 118.357 87.4287 117.86 87.4287C117.362 87.4287 116.959 87.8319 116.959 88.3293C116.959 88.8265 117.362 89.2299 117.86 89.2299Z" fill="#B0CB93" fill-opacity="0.7"/>
<g opacity="0.56">
<path opacity="0.56" d="M102.762 93.1689L101.966 93.5489L101.364 92.2702C100.983 92.4816 100.561 92.611 100.127 92.6502C99.7634 92.6819 99.3977 92.6226 99.0629 92.4773C98.7283 92.3319 98.435 92.1053 98.21 91.818C97.8091 91.3278 97.5564 90.678 97.4386 89.823C97.2068 88.1548 97.5412 86.5037 97.982 85.092L97.4861 84.0318C97.3417 83.7278 97.1061 83.2186 97.2961 82.7018C97.3683 82.5329 97.4802 82.3839 97.6225 82.2676C97.7646 82.1513 97.9328 82.0712 98.1127 82.0337C98.2926 81.9965 98.4789 82.0031 98.6556 82.0533C98.8323 82.1035 98.9943 82.1956 99.1277 82.3218C99.6977 82.926 99.369 83.8171 99.2265 84.1971C99.1296 84.4612 99.0365 84.7405 98.9339 85.0312L100.304 87.942C101.064 87.4081 102.124 87.5772 102.783 88.3334C103.388 89.025 103.42 89.9788 102.871 90.8832C102.666 91.217 102.409 91.5164 102.111 91.7705L102.762 93.1689ZM98.5558 86.3061C98.263 87.4113 98.18 88.5618 98.3107 89.6976C98.4057 90.3835 98.5957 90.8927 98.8921 91.2537C99.0289 91.4306 99.2079 91.57 99.4127 91.6593C99.6177 91.7488 99.8417 91.7849 100.064 91.7648C100.39 91.7334 100.705 91.6337 100.99 91.4722L100.215 89.8249C100.199 89.9047 100.186 89.9883 100.176 90.0738L99.3006 89.9712C99.3511 89.5216 99.4798 89.0844 99.6806 88.6792L98.5558 86.3061ZM100.686 88.759L101.708 90.9402C101.862 90.7867 101.997 90.6151 102.111 90.4291C102.274 90.1612 102.603 89.4791 102.111 88.9091C101.801 88.5557 101.242 88.3391 100.8 88.6621C100.759 88.6908 100.721 88.7233 100.686 88.759ZM98.2157 82.9108C98.1948 82.9186 98.1756 82.9305 98.1593 82.9459C98.1429 82.9613 98.1298 82.9797 98.1207 83.0001C98.0618 83.1597 98.1739 83.4219 98.2841 83.6556L98.3943 83.8912C98.514 83.5663 98.6546 83.1122 98.4817 82.9298C98.4549 82.9094 98.4239 82.8954 98.3911 82.8887C98.3582 82.8823 98.3242 82.8832 98.2917 82.8918C98.2649 82.8946 98.2387 82.9009 98.2138 82.9108H98.2157Z" fill="#C5EE9B"/>
</g>
<path d="M138.372 69.4967L137.422 68.8032L138.53 67.2832C138.042 66.9697 137.625 66.5581 137.304 66.0748C137.036 65.6701 136.873 65.2048 136.829 64.7212C136.786 64.2375 136.863 63.7505 137.056 63.3046C137.373 62.5237 137.975 61.8131 138.895 61.1329C140.698 59.8029 142.841 59.1398 144.771 58.7541L145.687 57.5039C145.953 57.141 146.396 56.5368 147.12 56.4266C147.364 56.4003 147.611 56.4344 147.84 56.5256C148.068 56.6168 148.27 56.7623 148.43 56.9494C148.589 57.1368 148.7 57.3602 148.753 57.6002C148.806 57.8402 148.8 58.0894 148.735 58.3266C148.395 59.3792 147.141 59.5597 146.607 59.6376C146.227 59.6908 145.847 59.7516 145.446 59.8276L142.915 63.2837C144.021 63.8309 144.502 65.1837 144.038 66.4301C143.612 67.5701 142.518 68.2237 141.11 68.1553C140.59 68.1269 140.077 68.0173 139.59 67.8304L138.372 69.4967ZM143.715 60.2095C142.296 60.5895 140.842 61.1595 139.596 62.0829C138.855 62.6301 138.382 63.1754 138.148 63.753C138.027 64.0249 137.978 64.323 138.004 64.6194C138.03 64.9158 138.13 65.2008 138.296 65.4478C138.539 65.8086 138.856 66.1137 139.225 66.3427L140.658 64.3876C140.555 64.4218 140.451 64.4598 140.344 64.5016L139.907 63.4129C140.463 63.1854 141.054 63.0568 141.654 63.0329L143.715 60.2095ZM142.205 64.2603L140.318 66.8386C140.596 66.9197 140.882 66.9687 141.171 66.9849C141.589 67.0039 142.598 66.9507 142.942 66.0235C143.158 65.4383 143.046 64.6517 142.395 64.3325C142.333 64.3034 142.27 64.2793 142.205 64.2603ZM147.468 57.6464C147.421 57.6085 147.362 57.5888 147.302 57.5913C147.078 57.6255 146.842 57.9238 146.639 58.2012L146.436 58.4805C146.892 58.4159 147.511 58.2905 147.616 57.9713C147.623 57.9253 147.618 57.8782 147.604 57.8341C147.589 57.7898 147.565 57.7497 147.532 57.7167C147.513 57.691 147.491 57.6676 147.468 57.6464Z" fill="#B0CB93" fill-opacity="0.7"/>
</svg>
