<svg width="221" height="164" viewBox="0 0 221 164" fill="none" xmlns="http://www.w3.org/2000/svg">
<path d="M50.8855 106.457C59.0138 104.193 66.6951 96.9391 66.7801 88.1935C66.9308 72.5103 58.4428 58.3045 60.7221 42.5873C62.3332 31.4093 67.3949 18.5108 75.9096 10.0884C80.7405 5.30863 86.6818 1.96739 93.7434 1.20923C109.468 -0.491775 126.383 8.34613 134.728 21.6358C137.887 26.6829 139.702 32.4299 139.702 38.2716V38.3518C139.695 40.8518 139.353 43.3396 138.684 45.7487C138.475 46.4996 138.239 47.2601 138.003 48.028C137.988 48.0647 137.975 48.1029 137.967 48.1422C137.894 48.3634 137.824 48.5942 137.751 48.8153C136.536 52.7228 135.321 56.6934 136.536 60.4988C136.601 60.7078 136.679 60.9143 136.757 61.116C137.884 63.9543 140.292 66.1899 142.987 67.66C147.308 70.0171 152.083 71.2005 156.87 72.3402C162.928 73.7812 168.998 75.1711 174.186 78.7991C182.737 84.7769 187.551 94.7594 188.737 104.961C189.923 115.162 188.178 125.783 184.723 135.537" stroke="#C5EE9B" stroke-opacity="0.23" stroke-width="1.5" stroke-miterlimit="10"/>
<path d="M12.421 162.59C1.50298 149.553 0.934362 128.257 15.614 117.9" stroke="#E9F3E0" stroke-width="1.5" stroke-miterlimit="10"/>
<path d="M114.731 4.73975V23.3633" stroke="#E9F3E0" stroke-width="1.5" stroke-miterlimit="10"/>
<path d="M114.731 30.4807V34.0698" stroke="#CCDDE2" stroke-width="4.42" stroke-miterlimit="10"/>
<path d="M138.684 45.7582C137.328 50.6182 135 55.6993 136.541 60.5083C136.604 60.7173 136.684 60.9238 136.762 61.1255H82.0576C80.427 61.1255 78.8633 60.4777 77.7103 59.3247C76.5575 58.1719 75.9097 56.6082 75.9097 54.9776V10.098C80.7405 5.31815 86.6819 1.97691 93.7434 1.21875C109.468 -0.482253 126.383 8.35566 134.728 21.6453C139.25 28.843 140.992 37.4865 138.684 45.7582Z" stroke="#E9F3E0" stroke-width="1.5" stroke-miterlimit="10"/>
<g opacity="0.67">
<path opacity="0.67" d="M57.7963 79.6226C57.7963 79.6372 57.7963 79.6518 57.7817 79.6664C57.6821 80.0527 57.5825 80.4415 57.495 80.8279C57.4658 80.9494 57.4391 81.0709 57.4172 81.1778C57.3224 81.5812 57.2374 81.9821 57.1742 82.3928C57.1728 82.3964 57.1718 82.4001 57.1718 82.4038C57.1718 82.4076 57.1728 82.4113 57.1742 82.4147C57.1013 82.8011 57.0381 83.1801 56.9798 83.5689C56.9507 83.7196 56.9288 83.8702 56.9142 84.0185C56.851 84.4073 56.8073 84.7864 56.7635 85.1727C56.5205 87.3743 57.1013 89.8335 56.4647 91.9767C56.0418 93.374 54.8876 94.5428 53.6118 95.6825C53.4174 95.8526 53.2157 96.0251 53.0238 96.2049L52.4211 96.7274C52.1271 96.9923 51.8331 97.2571 51.5536 97.5244C51.4613 97.6095 51.3665 97.6945 51.2815 97.7893C51.1964 97.8841 51.1016 97.9691 51.0093 98.0615C50.1418 98.9654 49.4541 99.9253 49.2451 101.028C49.1688 101.435 49.1589 101.851 49.216 102.26C49.2235 102.348 49.2381 102.435 49.2597 102.52C49.2699 102.608 49.2869 102.694 49.3107 102.778C49.3253 102.834 49.3399 102.892 49.352 102.948C49.4104 103.164 49.476 103.378 49.5537 103.595C49.7911 104.198 50.0589 104.789 50.3556 105.366C50.414 105.48 50.4723 105.587 50.5209 105.701C50.8076 106.26 51.0871 106.826 51.3106 107.402C51.3592 107.531 51.403 107.66 51.454 107.791C51.505 107.922 51.5172 108.005 51.5536 108.112L51.5974 108.284C51.6314 108.421 51.6605 108.557 51.6897 108.693C51.7189 108.829 51.7262 108.916 51.7407 109.023C51.7407 109.052 51.7407 109.086 51.7407 109.123C51.782 109.498 51.7648 109.878 51.6897 110.248C51.488 111.31 50.8441 112.211 49.9887 113.064C49.2548 113.762 48.4765 114.411 47.6583 115.008C47.2428 115.324 46.8273 115.638 46.4263 115.961C46.0254 116.284 45.639 116.607 45.2721 116.933C45.187 117.02 45.0923 117.105 45.0072 117.19C44.5875 117.594 44.215 118.044 43.8967 118.532C42.3196 120.976 43.0583 123.778 42.2394 126.388C42.1226 126.766 41.9721 127.133 41.7899 127.484C41.7294 127.613 41.6594 127.737 41.5809 127.856C41.524 127.974 41.4565 128.087 41.3792 128.193C41.284 128.355 41.1795 128.511 41.0657 128.66C40.9564 128.811 40.8422 128.961 40.7207 129.105C40.6451 129.205 40.564 129.301 40.4777 129.391C40.3975 129.491 40.3124 129.583 40.2201 129.678C40.1936 129.707 40.1645 129.733 40.1326 129.756C40.0111 129.892 39.8823 130.021 39.7463 130.142C39.5178 130.359 39.2603 130.572 39.0173 130.774C38.8958 130.874 38.7743 130.969 38.6382 131.068C38.6017 131.098 38.5653 131.119 38.524 131.153C38.4827 131.187 38.4511 131.204 38.4073 131.233C38.3077 131.304 38.2081 131.377 38.1011 131.44C38.0574 131.476 38.0064 131.506 37.9651 131.535L37.7634 131.663C37.6905 131.712 37.6127 131.756 37.535 131.8C37.377 131.899 37.2118 131.999 37.049 132.094C36.9275 132.157 36.806 132.23 36.6699 132.293C36.5535 132.362 36.4334 132.425 36.3102 132.48C36.2033 132.538 36.0964 132.587 35.9822 132.638C35.8169 132.716 35.659 132.789 35.4962 132.859C35.3334 132.93 35.1584 133.002 34.9956 133.068L34.5849 133.219C34.4561 133.275 34.3274 133.318 34.1986 133.362L34.1281 133.384C33.8851 133.469 33.6251 133.547 33.3748 133.627C33.3038 133.65 33.2317 133.669 33.1585 133.683C33.0881 133.712 33.0079 133.727 32.9374 133.748C32.7867 133.627 32.6288 133.505 32.4708 133.362C32.4531 133.349 32.4368 133.335 32.4222 133.318C32.4222 133.318 32.4077 133.318 32.4077 133.304C32.4077 133.289 32.3931 133.304 32.3858 133.289C32.3056 133.219 32.2351 133.146 32.1428 133.075C31.8512 132.803 31.5499 132.495 31.2485 132.157L31.0687 131.958C31.0469 131.936 31.025 131.906 31.0031 131.885C30.9752 131.847 30.9443 131.811 30.9108 131.778C30.6532 131.484 30.4029 131.168 30.1575 130.845C30.0506 130.723 29.9582 130.602 29.8707 130.473C29.8202 130.414 29.7747 130.352 29.7347 130.286C29.6277 130.142 29.5281 129.999 29.4285 129.856C29.3847 129.8 29.3483 129.749 29.3118 129.693L29.1417 129.45C29.1272 129.435 29.1199 129.413 29.1053 129.401L28.7019 128.837C29.811 126.99 30.7132 125.026 31.3919 122.981C31.4405 122.83 31.477 122.68 31.5134 122.529C31.5807 122.236 31.6286 121.939 31.6568 121.64V121.603C31.7051 120.945 31.6782 120.284 31.5766 119.633C31.4833 119.02 31.3591 118.413 31.2048 117.812C31.1246 117.504 31.0469 117.203 30.9618 116.896L30.7188 115.978C30.5169 115.224 30.3609 114.457 30.2522 113.684C30.2401 113.592 30.2328 113.497 30.2255 113.404L30.2036 113.198C30.2036 113.096 30.1891 112.996 30.1818 112.889C30.1745 112.782 30.1818 112.709 30.1818 112.624V112.588C30.1818 112.372 30.1672 112.158 30.1672 111.949C30.1672 111.74 30.1672 111.533 30.1818 111.327C30.1818 111.232 30.1818 111.132 30.1964 111.04C30.1964 110.875 30.2109 110.71 30.2255 110.554C30.2401 110.399 30.2474 110.224 30.2595 110.068C30.2717 109.913 30.2887 109.738 30.3106 109.582C30.3324 109.427 30.347 109.252 30.3616 109.096C30.4175 108.61 30.4758 108.107 30.5341 107.611C30.5341 107.582 30.5341 107.546 30.5341 107.519C30.5681 107.225 30.6046 106.924 30.6338 106.63V106.615C30.6629 106.314 30.6896 106.02 30.7115 105.718C30.7084 105.695 30.7084 105.671 30.7115 105.648C30.7341 105.376 30.7487 105.104 30.7553 104.831C30.7553 104.78 30.7553 104.729 30.7553 104.681V104.644C30.7553 104.457 30.7553 104.277 30.7553 104.093C31.1052 103.799 31.4648 103.527 31.8366 103.254C32.8149 102.553 33.749 101.792 34.6335 100.975C34.8036 100.817 34.9543 100.652 35.105 100.489C36.4317 98.9994 37.0344 97.3568 37.4062 95.6509C37.9869 93.0338 38.0307 90.2903 39.3356 87.7874C39.4425 87.5809 39.5567 87.3792 39.6855 87.1799C39.8301 86.941 39.9883 86.7107 40.1594 86.4898C40.485 86.0616 40.8388 85.6558 41.2188 85.2748C41.9038 84.6019 42.6508 83.9949 43.4496 83.462C43.9502 83.1242 44.4872 82.8083 45.0388 82.507C45.5904 82.2057 46.1712 81.9335 46.7665 81.6832C47.3619 81.433 47.9937 81.1972 48.6303 80.981C48.8466 80.9105 49.0604 80.8376 49.2767 80.7744C49.2767 80.7744 49.2767 80.7744 49.2913 80.7744C49.9352 80.5873 50.6011 80.4148 51.2766 80.2641C51.4977 80.2228 51.7262 80.1718 51.957 80.1281C53.8789 79.7453 55.8372 79.5757 57.7963 79.6226Z" fill="#74B4F7"/>
<path opacity="0.67" d="M57.7963 79.6226C57.7963 79.6372 57.7963 79.6518 57.7817 79.6664C57.6821 80.0527 57.5825 80.4415 57.495 80.8279C57.4658 80.9494 57.4391 81.0709 57.4172 81.1778C57.3224 81.5812 57.2374 81.9821 57.1742 82.3928C57.1728 82.3964 57.1718 82.4001 57.1718 82.4038C57.1718 82.4076 57.1728 82.4113 57.1742 82.4147C57.1013 82.8011 57.0381 83.1801 56.9798 83.5689C56.9507 83.7196 56.9288 83.8702 56.9142 84.0185C56.8583 84.4073 56.8073 84.7864 56.7635 85.1727C56.5205 87.3743 57.1013 89.8335 56.4647 91.9767C56.0418 93.374 54.8876 94.5428 53.6118 95.6825C53.4174 95.8526 53.2157 96.0251 53.0238 96.2049L52.4211 96.7274C52.1271 96.9923 51.8331 97.2571 51.5536 97.5244C51.4613 97.6095 51.3665 97.6945 51.2815 97.7893C51.1964 97.8841 51.1016 97.9691 51.0093 98.0615C50.1418 98.9654 49.4541 99.9253 49.2451 101.028C49.1688 101.435 49.1589 101.851 49.216 102.26C49.2235 102.348 49.2381 102.435 49.2597 102.521C49.2699 102.608 49.2869 102.694 49.3107 102.778C49.3253 102.834 49.3399 102.892 49.352 102.948C49.4104 103.164 49.476 103.378 49.5537 103.595C49.7911 104.198 50.0589 104.789 50.3556 105.366C50.414 105.48 50.4723 105.587 50.5209 105.701C50.8076 106.26 51.0871 106.826 51.3106 107.402C51.3592 107.531 51.403 107.66 51.454 107.791C51.505 107.922 51.5172 108.005 51.5536 108.112L51.5974 108.284C51.6314 108.421 51.6605 108.557 51.6897 108.693C51.7189 108.829 51.7262 108.916 51.7407 109.023C51.7407 109.052 51.7407 109.086 51.7407 109.123C51.782 109.498 51.7648 109.878 51.6897 110.248C51.488 111.31 50.8441 112.211 49.9887 113.064C49.2548 113.762 48.4765 114.411 47.6583 115.008C47.2428 115.324 46.8273 115.638 46.4263 115.961C46.0254 116.284 45.639 116.607 45.2721 116.933C45.187 117.02 45.0923 117.105 45.0072 117.19C44.5875 117.594 44.215 118.044 43.8967 118.532C42.3196 120.976 43.0583 123.778 42.2394 126.388C42.1226 126.766 41.9721 127.133 41.7899 127.484C41.7294 127.613 41.6594 127.737 41.5809 127.856C41.524 127.974 41.4565 128.087 41.3792 128.193C41.284 128.355 41.1795 128.511 41.0657 128.66C40.9564 128.811 40.8422 128.961 40.7207 129.105C40.6451 129.205 40.564 129.301 40.4777 129.391C40.3975 129.491 40.3124 129.583 40.2201 129.678C40.1936 129.707 40.1645 129.733 40.1326 129.756C40.0111 129.892 39.8823 130.021 39.7463 130.142C39.5178 130.359 39.2603 130.572 39.0173 130.774C38.8958 130.874 38.7743 130.969 38.6382 131.068C38.6017 131.098 38.5653 131.119 38.524 131.153C38.4827 131.187 38.4511 131.204 38.4073 131.233C38.3077 131.304 38.2081 131.377 38.1011 131.44C38.0574 131.476 38.0064 131.506 37.9651 131.535L37.7634 131.663C37.6905 131.712 37.6127 131.756 37.535 131.8C37.377 131.899 37.2118 131.999 37.049 132.094C36.9275 132.157 36.806 132.23 36.6699 132.293C36.605 132.331 36.5374 132.366 36.4682 132.395L36.3102 132.48C36.2033 132.538 36.0964 132.587 35.9822 132.638C35.8169 132.716 35.659 132.789 35.4962 132.859C35.3334 132.93 35.1584 132.995 34.9956 133.061L34.5849 133.211C34.4561 133.26 34.3274 133.304 34.1986 133.347L34.1281 133.369C33.8851 133.454 33.6251 133.532 33.3748 133.612C33.3038 133.636 33.2317 133.654 33.1585 133.668C33.0881 133.697 33.0079 133.712 32.9374 133.734C32.7867 133.612 32.6288 133.491 32.4708 133.347C32.4531 133.335 32.4368 133.32 32.4222 133.304C32.4222 133.304 32.4222 133.304 32.4077 133.304C32.3931 133.304 32.3931 133.304 32.3858 133.289C32.3056 133.219 32.2351 133.146 32.1428 133.075C31.8512 132.803 31.5499 132.495 31.2485 132.157L31.0687 131.958C31.0469 131.936 31.025 131.906 31.0031 131.885C30.9752 131.847 30.9443 131.811 30.9108 131.778C30.6532 131.484 30.4029 131.168 30.1575 130.845C30.0506 130.723 29.9582 130.602 29.8707 130.473C29.8202 130.414 29.7747 130.352 29.7347 130.286C29.6277 130.142 29.5281 129.999 29.4285 129.856C29.3847 129.8 29.3483 129.749 29.3118 129.693L29.1417 129.45C29.1272 129.435 29.1199 129.413 29.1053 129.401L28.7019 128.837C29.811 126.99 30.7132 125.026 31.3919 122.981C31.4405 122.83 31.477 122.68 31.5134 122.529C31.5807 122.236 31.6286 121.939 31.6568 121.64V121.603C31.7051 120.945 31.6782 120.284 31.5766 119.633C31.4843 119.032 31.3555 118.418 31.2048 117.812C31.1246 117.504 31.0469 117.203 30.9618 116.896L30.7188 115.978C30.5169 115.224 30.3609 114.457 30.2522 113.684C30.2401 113.592 30.2328 113.497 30.2255 113.404L30.2036 113.198C30.2036 113.096 30.1891 112.996 30.1818 112.889C30.1745 112.782 30.1818 112.709 30.1818 112.624V112.588C30.1818 112.372 30.1672 112.158 30.1672 111.949C30.1672 111.74 30.1672 111.533 30.1818 111.327C30.1818 111.232 30.1818 111.132 30.1964 111.04C30.1964 110.875 30.2109 110.71 30.2255 110.554C30.2401 110.399 30.2474 110.224 30.2595 110.068C30.2717 109.913 30.2887 109.738 30.3106 109.582C30.3324 109.427 30.347 109.252 30.3616 109.096C30.4102 108.61 30.4758 108.107 30.5341 107.611C30.5341 107.582 30.5341 107.546 30.5341 107.519C30.5681 107.225 30.5973 106.924 30.6338 106.63V106.615C30.6629 106.314 30.6896 106.02 30.7115 105.718C30.7084 105.695 30.7084 105.671 30.7115 105.648C30.7261 105.376 30.748 105.104 30.7553 104.831C30.7553 104.78 30.7553 104.729 30.7553 104.681V104.644C30.7553 104.457 30.7553 104.277 30.7553 104.093C31.1052 103.799 31.4648 103.527 31.8366 103.254C32.8149 102.553 33.749 101.792 34.6335 100.975C34.8036 100.817 34.9543 100.652 35.105 100.489C36.4317 98.9994 37.0344 97.3568 37.4062 95.6509C37.9869 93.0338 38.0307 90.2903 39.3356 87.7874C39.4425 87.5809 39.5567 87.3792 39.6855 87.1799C39.8301 86.941 39.9883 86.7107 40.1594 86.4898C40.485 86.0616 40.8388 85.6558 41.2188 85.2748C41.9038 84.6019 42.6508 83.9949 43.4496 83.462C43.9502 83.1242 44.4872 82.8083 45.0388 82.507C45.5904 82.2057 46.1712 81.9335 46.7665 81.6832C47.3619 81.433 47.9937 81.1972 48.6303 80.981C48.8466 80.9105 49.0604 80.8376 49.2767 80.7744C49.2767 80.7744 49.2767 80.7744 49.2913 80.7744C49.9352 80.5873 50.6011 80.4148 51.2766 80.2641C51.4977 80.2228 51.7262 80.1718 51.957 80.1281C53.8789 79.7453 55.8372 79.5757 57.7963 79.6226Z" fill="#B7CF9E"/>
<path opacity="0.67" d="M37.3819 93.8216C37.0101 95.5226 36.4099 97.1677 35.0831 98.6597C34.9325 98.8249 34.7818 98.9877 34.6093 99.1457C33.7267 99.9634 32.7933 100.725 31.8148 101.425C31.426 101.712 31.0469 101.999 30.6824 102.3C30.4661 101.95 30.5463 101.386 30.2596 100.922C30.0365 100.529 29.836 100.123 29.6594 99.707C29.6594 99.6851 29.5427 99.1408 29.5209 99.1262C28.8227 98.1491 28.0621 97.218 27.244 96.339C25.8904 94.9418 23.9003 93.3914 23.735 93.2189L23.7205 93.2043C23.7205 93.2043 24.1263 81.2973 30.8331 77.5308C36.6019 74.2771 37.3042 89.4719 37.3819 93.8216Z" fill="#B7CF9E"/>
<path opacity="0.67" d="M56.4501 91.9627C55.4173 95.3963 49.9037 97.4885 49.2305 101.017C48.6352 104.142 52.2923 107.058 51.6824 110.234C51.0458 113.636 45.8042 115.524 43.8845 118.542C42.3075 120.972 43.0462 123.788 42.2273 126.396C41.2553 129.555 37.8193 132.325 33.3335 133.637C33.1901 133.679 33.0395 133.722 32.8961 133.759C31.5353 132.704 29.9801 130.843 28.7019 128.833C29.8102 126.987 30.7125 125.025 31.3919 122.982C32.3639 119.937 30.6629 116.805 30.2644 113.687C29.8003 109.93 31.2048 105.96 30.6605 102.312C32.1501 101.114 33.8778 99.9963 35.0831 98.6671C38.4438 94.9055 37.1534 90.0965 39.3113 85.9679C41.9357 80.9281 50.1977 77.4095 58.3187 77.8736C57.5499 80.2516 57.024 82.7015 56.749 85.1854C56.506 87.3627 57.0867 89.8195 56.4501 91.9627Z" stroke="black" stroke-width="1.5" stroke-linecap="round" stroke-linejoin="round"/>
<path opacity="0.67" d="M53.3618 81.8049C41.2531 94.1566 35.5571 120.199 33.341 133.634C33.1612 134.769 32.9959 135.807 32.855 136.742" stroke="black" stroke-width="1.5" stroke-linecap="round" stroke-linejoin="round"/>
<path opacity="0.67" d="M30.6459 102.31C32.1428 101.095 33.8778 99.982 35.0758 98.6431C38.4413 94.879 37.1486 90.0724 39.304 85.9439C41.9333 80.9016 50.1977 77.3878 58.3187 77.8495C57.5475 80.2261 57.0206 82.6753 56.7465 85.159C56.5035 87.3654 57.0819 89.8222 56.4476 91.963C55.4125 95.4039 49.8988 97.4888 49.2281 101.02C48.6352 104.14 52.2875 107.058 51.6824 110.234C51.0409 113.636 45.8067 115.524 43.8797 118.54C42.305 120.989 43.0438 123.794 42.2297 126.401C41.2407 129.545 37.8193 132.328 33.3311 133.635C33.1877 133.681 33.0346 133.725 32.8912 133.764C31.528 132.707 29.9752 130.848 28.7019 128.836" stroke="black" stroke-width="1.5" stroke-linecap="round" stroke-linejoin="round"/>
<path opacity="0.67" d="M53.3618 81.8049C41.2531 94.1566 35.5571 120.199 33.341 133.634C33.1612 134.769 32.9959 135.807 32.855 136.742" stroke="black" stroke-width="1.5" stroke-linecap="round" stroke-linejoin="round"/>
<path opacity="0.67" d="M44.6626 141.739L41.3205 159.691C41.2275 160.195 40.953 160.651 40.5447 160.979C40.1367 161.308 39.621 161.488 39.0885 161.488H21.6469C21.1091 161.488 20.5886 161.305 20.1787 160.971C19.7685 160.636 19.4952 160.173 19.4077 159.663L16.3269 141.739H44.6626Z" stroke="black" stroke-width="1.5" stroke-linecap="round" stroke-linejoin="round"/>
<path opacity="0.67" d="M48.0897 139.372C48.0432 140.017 47.7809 140.619 47.3553 141.057C46.9299 141.496 46.3721 141.739 45.7935 141.738H15.1963C14.6233 141.738 14.0711 141.499 13.6469 141.068C13.223 140.637 12.9576 140.045 12.9025 139.407C12.8724 139.05 12.9093 138.69 13.0108 138.349C13.1123 138.009 13.2763 137.696 13.4921 137.43C13.708 137.165 13.9712 136.952 14.2647 136.807C14.5581 136.662 14.8753 136.587 15.1963 136.586H45.7935C46.1118 136.586 46.4266 136.66 46.7183 136.803C47.0098 136.946 47.2718 137.155 47.4875 137.416C47.7032 137.678 47.8681 137.987 47.9718 138.324C48.0755 138.66 48.1155 139.017 48.0897 139.372Z" stroke="black" stroke-width="1.5" stroke-linecap="round" stroke-linejoin="round"/>
<g opacity="0.36">
<path opacity="0.36" d="M31.6569 121.596V121.611C31.6204 122.073 31.5315 122.531 31.392 122.974C30.7133 125.019 29.8111 126.983 28.702 128.83L29.0762 129.404L25.1688 134.334C25.1102 134.318 25.0526 134.298 24.9962 134.276C24.8893 134.242 24.7824 134.205 24.6755 134.162C24.528 134.112 24.3841 134.052 24.2454 133.982L23.808 132.57C23.7098 132.53 23.6143 132.485 23.5212 132.434C23.2782 132.327 23.0352 132.205 22.819 132.084C22.6027 131.962 22.367 131.841 22.1434 131.702C21.2783 131.192 20.4709 130.589 19.7353 129.904C19.5579 129.739 19.3781 129.566 19.2128 129.396C18.7606 128.932 18.3485 128.431 17.9808 127.897C17.9305 127.834 17.8851 127.767 17.8448 127.698C17.4584 127.126 17.1325 126.515 16.8728 125.875C16.7999 125.705 16.7367 125.533 16.6784 125.36C16.5921 125.133 16.5197 124.901 16.4621 124.665C15.6748 121.647 16.3843 118.393 14.8802 115.562C14.3754 114.669 13.748 113.851 13.0163 113.132C12.9216 113.033 12.8292 112.938 12.7296 112.846C12.4866 112.603 12.2436 112.379 12.0006 112.151C11.2716 111.463 10.494 110.78 9.79903 110.07C8.60347 108.855 7.62661 107.534 7.36903 105.939C7.35445 105.862 7.34716 105.777 7.33987 105.696C7.65577 102.644 10.0931 99.7624 9.75043 96.7225C9.74477 96.646 9.73502 96.5697 9.72127 96.4941C9.07489 92.4093 3.77749 89.9914 2.78848 86.0014C2.53044 84.8046 2.43402 83.5786 2.50174 82.3563C2.51632 81.2458 2.58193 80.1207 2.54548 79.037C2.54548 78.7308 2.5309 78.4295 2.50174 78.1281C2.24766 75.2646 1.74518 72.4288 1 69.6523C1.09963 69.6523 1.20898 69.6377 1.30861 69.6377C9.00685 69.2222 16.7756 73.2657 19.2712 79.0272C21.3415 83.8095 20.4862 88.8517 23.7254 93.2039L23.7399 93.2185C24.5418 94.2925 26.0023 95.2985 27.0399 96.2511C27.8967 97.0294 28.6694 97.895 29.3459 98.8342C29.3678 98.8488 30.3763 99.4271 29.6594 99.534C29.7858 99.6871 29.9005 99.8494 30.002 100.02C30.1308 100.229 29.759 100.749 29.8562 100.946C29.8562 100.946 30.245 100.618 30.245 100.625C30.6533 101.456 30.5245 102.652 30.6606 103.519C30.723 103.935 30.7612 104.355 30.7748 104.776C30.6824 107.339 30.0871 109.993 30.1867 112.566V112.603C30.1481 113.365 30.1741 114.129 30.2645 114.887C30.5464 117.149 31.4989 119.382 31.6569 121.596Z" fill="#B7CF9E"/>
<path opacity="0.36" d="M30.1867 112.581C30.087 110.007 30.6727 107.354 30.7747 104.79C30.8889 107.327 30.2717 109.978 30.1867 112.581Z" fill="#B7CF9E"/>
<path opacity="0.36" d="M31.3919 124.196C30.7922 126.005 30.0165 127.751 29.0761 129.409L28.7019 128.838C29.811 126.99 30.7132 125.026 31.3919 122.981C31.5314 122.538 31.6203 122.081 31.6568 121.618C31.7345 122.486 31.6446 123.362 31.3919 124.196Z" fill="#B7CF9E"/>
<path opacity="0.36" d="M25.4701 136.74L24.2551 133.989L23.8177 132.577V132.563L5.78467 74.2427C17.0866 88.1617 22.5784 117.098 24.8359 132.995C24.8991 133.433 24.9574 133.863 25.0133 134.278C25.0935 134.837 25.1639 135.384 25.2296 135.906C25.3 136.643 25.3996 136.103 25.4701 136.74Z" fill="#B7CF9E"/>
</g>
<path opacity="0.67" d="M31.6581 121.597C31.6224 122.062 31.5335 122.522 31.3933 122.967C30.7131 125.016 29.8111 126.985 28.7032 128.838C28.3242 129.482 27.9305 130.099 27.5296 130.673C27.3133 130.974 27.0994 131.268 26.8905 131.547C26.7544 131.732 26.611 131.905 26.4676 132.077C26.3243 132.25 26.1809 132.412 26.0448 132.563C25.9816 132.651 25.9015 132.728 25.831 132.806C25.6949 132.942 25.5588 133.078 25.4276 133.2C25.2842 133.149 25.1409 133.107 24.9975 133.049C24.9363 133.034 24.8767 133.012 24.8201 132.983C24.6257 132.92 24.4313 132.84 24.2466 132.762L24.1519 132.719C24.0376 132.677 23.9234 132.626 23.8092 132.575C23.7111 132.535 23.6155 132.49 23.5225 132.439C23.2795 132.332 23.0365 132.211 22.8202 132.089C22.6039 131.968 22.3682 131.846 22.1447 131.708C21.2796 131.197 20.4721 130.594 19.7365 129.91C19.5592 129.744 19.3793 129.572 19.2141 129.402C18.7619 128.938 18.3497 128.436 17.9821 127.902C17.9318 127.839 17.8863 127.773 17.846 127.703C17.4596 127.131 17.1338 126.52 16.874 125.881C16.8011 125.711 16.7379 125.538 16.6796 125.365C16.5933 125.138 16.5209 124.906 16.4633 124.67C15.676 121.652 16.3856 118.399 14.8814 115.568C14.3767 114.675 13.7493 113.856 13.0176 113.138C12.9228 113.038 12.8305 112.943 12.7309 112.851C11.7832 111.911 10.731 111.016 9.81485 110.076C8.61929 108.861 7.64243 107.539 7.38485 105.945C7.37027 105.867 7.36298 105.782 7.35569 105.702C7.02035 102.613 9.45035 99.7241 9.76625 96.7279C9.81993 96.2426 9.81011 95.7525 9.73709 95.2699C9.09071 91.1851 3.79331 88.7696 2.8043 84.7772C2.61812 83.9804 2.52194 83.1653 2.51756 82.3472C2.48354 81.2512 2.54672 80.1334 2.5613 79.0278C2.59071 78.3155 2.5761 77.6021 2.51756 76.8918C2.29889 74.4472 1.8968 72.0226 1.31471 69.6383C1.22237 69.2373 1.11302 68.8291 1.0061 68.4233C6.28163 68.0588 11.6276 69.8059 15.3115 72.7802C15.7975 73.1771 16.2495 73.586 16.6675 74.0074C17.7624 75.1004 18.6469 76.3852 19.2773 77.7982C21.3476 82.578 20.101 88.1549 23.3402 92.507C23.9166 93.2542 24.5574 93.9494 25.2551 94.5846C25.5345 94.8495 25.814 95.1071 26.1007 95.3744C26.6742 95.8968 27.2477 96.4193 27.7774 96.9563C28.4384 97.6034 29.0252 98.3222 29.527 99.0996C29.6121 99.2429 29.6971 99.3936 29.77 99.5443C29.8283 99.6536 29.8842 99.7678 29.9353 99.882C29.9863 99.9963 30.0568 100.14 30.1078 100.276C30.1588 100.412 30.2001 100.519 30.2439 100.628C30.2439 100.643 30.2439 100.657 30.2584 100.669C30.2998 100.801 30.3435 100.929 30.3799 101.058C30.4164 101.187 30.4577 101.338 30.4942 101.481C30.5306 101.624 30.55 101.724 30.5719 101.838C30.5938 101.952 30.6375 102.147 30.6594 102.297C30.7731 103.119 30.8113 103.95 30.7736 104.778C30.6886 107.345 30.0859 109.996 30.1855 112.576C30.1855 112.948 30.222 113.305 30.2633 113.672C30.6035 116.328 31.8793 118.996 31.6581 121.597Z" stroke="black" stroke-width="1.5" stroke-linecap="round" stroke-linejoin="round"/>
<path opacity="0.67" d="M5.76294 73.001C17.388 87.3088 22.858 117.47 24.9964 133.046C25.1786 134.395 25.3439 135.634 25.4824 136.742" stroke="black" stroke-width="1.5" stroke-linecap="round" stroke-linejoin="round"/>
<path opacity="0.67" d="M56.4514 91.9675C55.4187 95.3987 49.905 97.4934 49.2319 101.019C48.6365 104.144 52.2937 107.063 51.6838 110.236C51.0471 113.638 45.8056 115.526 43.8859 118.544C42.3088 120.989 43.0475 123.791 42.2286 126.401C41.3052 129.368 38.2021 132.012 34.0954 133.397C33.8524 133.482 33.5924 133.559 33.3421 133.64C33.1987 133.683 33.0481 133.725 32.9047 133.761C31.6727 132.809 30.2803 131.195 29.0848 129.411L28.7032 128.838C28.3242 129.482 27.9305 130.099 27.5296 130.673C27.3133 130.974 27.0994 131.268 26.8905 131.547C26.7544 131.732 26.611 131.905 26.4676 132.077C26.3243 132.25 26.1809 132.412 26.0448 132.563C25.9816 132.651 25.9015 132.728 25.831 132.806C25.6949 132.949 25.5588 133.086 25.4276 133.207C25.2842 133.156 25.1409 133.115 24.9975 133.056L24.8201 132.991C24.6247 132.926 24.4332 132.85 24.2466 132.762L24.1519 132.719C24.0316 132.674 23.9147 132.622 23.8019 132.561C23.7096 132.527 23.6148 132.483 23.5225 132.439C23.2795 132.332 23.0365 132.211 22.8202 132.089C22.6039 131.968 22.3682 131.846 22.1447 131.708C21.2796 131.197 20.4721 130.594 19.7365 129.91C19.5592 129.744 19.3793 129.572 19.2141 129.402C18.7619 128.938 18.3497 128.436 17.9821 127.902C17.9318 127.839 17.8863 127.773 17.846 127.703C17.4596 127.131 17.1338 126.52 16.874 125.881C16.8011 125.711 16.7379 125.538 16.6796 125.365C16.5933 125.139 16.5209 124.906 16.4633 124.67C15.676 121.652 16.3856 118.399 14.8814 115.568C14.3767 114.675 13.7493 113.856 13.0176 113.138C12.9228 113.038 12.8305 112.943 12.7309 112.851C11.7832 111.918 10.731 111.024 9.81485 110.076C8.61929 108.861 7.64243 107.539 7.38485 105.945C7.37027 105.867 7.36298 105.782 7.35569 105.702C7.02035 102.613 9.45035 99.7241 9.76625 96.7279C9.81993 96.2426 9.81011 95.7525 9.73709 95.2699C9.09071 91.1851 3.79331 88.7696 2.8043 84.7772C2.61812 83.9804 2.52194 83.1653 2.51756 82.3472C2.48354 81.2512 2.54672 80.1334 2.5613 79.0278C2.59071 78.3156 2.5761 77.6021 2.51756 76.8918C2.29889 74.4472 1.8968 72.0226 1.31471 69.6383C1.22237 69.2373 1.11302 68.8291 1.0061 68.4233C6.28163 68.0588 11.6276 69.8059 15.3115 72.7802C15.7866 73.163 16.2393 73.5727 16.6675 74.0074C17.7624 75.1004 18.6469 76.3852 19.2773 77.7982C21.3476 82.578 20.101 88.1549 23.3402 92.507C23.9166 93.2542 24.5574 93.9494 25.2551 94.5847C25.5345 94.8495 25.814 95.1144 26.1007 95.3744C26.6742 95.8969 27.2477 96.4193 27.7774 96.9563C28.4384 97.6034 29.0252 98.3222 29.527 99.0996C29.6121 99.243 29.6971 99.3936 29.77 99.5443C29.8283 99.6536 29.8842 99.7678 29.9353 99.882C29.9863 99.9963 30.0568 100.14 30.1078 100.276C30.1588 100.412 30.2001 100.519 30.2439 100.628C30.2439 100.643 30.2439 100.657 30.2584 100.669C30.2998 100.801 30.3435 100.929 30.3799 101.058C30.4164 101.187 30.4577 101.338 30.4942 101.481C30.5306 101.624 30.55 101.724 30.5719 101.838C30.5938 101.952 30.6375 102.147 30.6594 102.297C32.149 101.099 33.8767 99.9817 35.082 98.6525C38.4427 94.8884 37.1524 90.0794 39.3102 85.9509C41.9346 80.911 50.1966 77.3924 58.3177 77.859C57.549 80.2362 57.0232 82.6852 56.7479 85.1684C56.5073 87.3651 57.0881 89.8243 56.4514 91.9675Z" stroke="black" stroke-width="1.5" stroke-linecap="round" stroke-linejoin="round"/>
<path opacity="0.67" d="M23.3318 92.5119C23.3318 92.5119 24.1313 80.0776 30.8381 76.2989C37.5449 72.5203 37.3991 93.7123 37.3991 93.7123" stroke="black" stroke-width="1.5" stroke-linecap="round" stroke-linejoin="round"/>
<path opacity="0.67" d="M30.6459 102.31C30.6459 102.31 29.2754 95.1975 31.6787 88.2161" stroke="black" stroke-width="1.5" stroke-linecap="round" stroke-linejoin="round"/>
</g>
<path d="M172.625 157.237L172.616 157.245" stroke="#CCDDE2" stroke-width="3" stroke-miterlimit="10"/>
<path d="M104.275 35.1899C104.275 35.1899 109.745 31.664 107.434 27.9145C105.123 24.165 104.275 35.1899 104.275 35.1899Z" fill="#404040"/>
<path d="M160.789 57.8574C157.728 59.4272 154.43 59.3154 151.271 58.115C148.404 57.019 145.845 55.2184 143.544 53.2185L127.992 41.4355C124.633 39.4006 121.619 36.8454 119.061 33.866C115.399 29.5722 109.492 28.6342 108.095 28.469L107.091 26.542C108.962 25.7814 110.919 24.7997 112.923 24.5348C116.93 23.9905 121.137 25.6891 124.055 28.3621C125.674 29.8517 127.088 31.5648 128.699 33.0641C132.728 36.8185 138.463 38.1671 143.765 39.3189C146.438 39.8997 149.383 40.0844 152.1 40.3638C154.8 40.6319 157.432 41.3723 159.876 42.5508C161.482 43.2968 162.515 44.7524 163.764 46.1715C164.72 47.4879 165.295 49.0426 165.426 50.6646C165.613 53.8333 163.499 56.4577 160.789 57.8574Z" fill="#404040"/>
<path d="M104.275 35.19C103.537 35.6189 102.665 35.7567 101.83 35.5764H101.808C101.565 35.5059 101.322 35.4476 101.113 35.4038C101.02 35.3832 100.93 35.3547 100.841 35.3188C98.3967 34.4294 96.9703 34.7745 97.4393 37.3843C97.9836 40.4582 93.9693 40.8592 91.3254 40.3853C86.6598 38.2858 85.3817 30.0943 89.0826 25.0472C89.1749 24.9184 89.2818 24.7823 89.3887 24.6462C89.4957 24.5101 89.6123 24.3814 89.7265 24.2526C90.0026 23.9525 90.2973 23.6701 90.6086 23.4069C90.7155 23.3122 90.8224 23.2198 90.9366 23.1348C91.0509 23.0497 91.2112 22.9258 91.3473 22.8262C91.4793 22.7214 91.6183 22.6257 91.7628 22.5394C93.0141 21.7156 94.4198 21.1555 95.8946 20.8931C97.3693 20.6307 98.8823 20.6717 100.341 21.0134L100.416 21.0352C100.924 21.2255 101.419 21.4479 101.898 21.7011C102.036 21.7701 102.17 21.8464 102.299 21.9295C102.356 21.9574 102.411 21.988 102.465 22.0218C102.593 22.102 102.722 22.1798 102.851 22.2648C103.109 22.4301 103.366 22.6075 103.612 22.8019C104.505 23.4864 105.296 24.2946 105.961 25.2027C106.075 25.3524 106.18 25.5081 106.277 25.6693C106.355 25.7767 106.427 25.8884 106.491 26.0046C106.591 26.1625 106.685 26.3205 106.771 26.4906C106.856 26.6607 106.98 26.8843 107.072 27.0859C107.145 27.2439 107.215 27.4018 107.281 27.5719C107.329 27.6934 107.38 27.8149 107.424 27.9292C107.57 28.3102 107.689 28.7007 107.781 29.098C107.811 29.194 107.833 29.2924 107.847 29.392C107.881 29.5067 107.907 29.6236 107.925 29.7419C107.947 29.8561 107.969 29.9849 107.99 30.1016L104.275 35.19Z" fill="#404040"/>
<path d="M106.246 25.4746C108.115 24.7115 110.071 23.7322 112.078 23.4625C116.08 22.9231 120.294 24.6192 123.205 27.2922C124.83 28.7842 126.24 30.4949 127.853 31.9991C131.885 35.7437 137.109 37.8019 142.426 38.9611C145.095 39.5219 147.794 39.934 150.508 40.1955C153.327 40.4895 155.876 40.5746 158.486 41.792C161.888 43.3666 165.166 46.7443 165.416 50.6566C165.618 53.8302 163.504 56.4522 160.799 57.8446C157.735 59.4144 154.433 59.3147 151.269 58.0997C148.401 57.0038 145.843 55.2056 143.539 53.1984" stroke="black" stroke-width="1.5" stroke-miterlimit="10"/>
<path d="M87.542 24.5951C87.6368 24.4664 87.7437 24.3303 87.8506 24.1942C87.9575 24.0581 88.0742 23.9293 88.1884 23.8005C88.5636 23.3967 88.9699 23.0229 89.4034 22.6827C89.5394 22.5734 89.6755 22.4738 89.8116 22.3741L89.8991 22.3085C90.0133 22.2308 90.1202 22.1506 90.2344 22.0874C93.3813 20.0097 97.1089 19.8153 100.341 21.006C100.482 21.0503 100.621 21.102 100.756 21.1616C101.146 21.3176 101.526 21.4952 101.896 21.6937C102.035 21.7623 102.169 21.8383 102.299 21.9221C102.356 21.9498 102.411 21.9807 102.465 22.0145C102.601 22.0947 102.729 22.1724 102.851 22.2575C103.113 22.4232 103.366 22.6023 103.609 22.7945C104.504 23.4783 105.296 24.2868 105.961 25.1954C106.075 25.345 106.18 25.5008 106.277 25.6619C106.355 25.7691 106.427 25.8811 106.491 25.9973C106.593 26.1552 106.686 26.3132 106.771 26.4833C106.856 26.6534 106.98 26.8769 107.072 27.0786C107.145 27.2366 107.215 27.3945 107.281 27.5646C107.329 27.6861 107.381 27.8076 107.424 27.9218C107.57 28.3028 107.689 28.6933 107.781 29.0906C107.811 29.1866 107.833 29.2851 107.847 29.3847C107.88 29.4996 107.906 29.6165 107.925 29.7346C107.947 29.8488 107.969 29.9776 107.99 30.0942C108.012 30.2109 108.024 30.3518 108.039 30.4879" stroke="black" stroke-width="1.5" stroke-miterlimit="10"/>
<path d="M122.041 157.573H140.725L140.968 162.537H116.486C116.486 162.537 112.158 159.585 117.1 157.573H122.041Z" fill="#B7CF9E"/>
<path d="M99.1719 65.4221C99.1719 65.4221 112.194 56.5137 127.992 72.751C127.992 72.751 125.861 85.5887 119.054 90.993C119.054 90.993 159.035 85.1148 163.239 99.8941C163.239 99.8941 164.629 74.1361 142.8 52.4678C120.971 30.7994 108.345 38.1915 104.27 49.5518C100.195 60.912 100.608 56.3144 99.1719 65.4221Z" fill="#B7CF9E"/>
<path d="M185.464 157.166V135.556L192.72 135.799V162.529H180.458C180.458 162.529 178.801 160.039 181.376 159.232C183.952 158.425 185.464 159.674 185.464 157.166Z" fill="#B7CF9E"/>
<path d="M75.3119 133.894C76.0674 133.894 76.68 133.282 76.68 132.526C76.68 131.77 76.0674 131.158 75.3119 131.158C74.5565 131.158 73.9438 131.77 73.9438 132.526C73.9438 133.282 74.5565 133.894 75.3119 133.894Z" fill="#74B4F7"/>
<path d="M123.834 39.3093C147.116 50.1714 163.246 73.791 163.246 101.175C163.267 115.167 158.966 128.823 150.931 140.278C149.599 142.179 148.172 144.01 146.657 145.768" stroke="black" stroke-width="1.5" stroke-linecap="round" stroke-linejoin="round"/>
<path d="M138.033 89.9717C138.033 89.9717 92.8759 87.5053 93.0776 110.544C93.1558 115.011 94.8874 119.291 97.9376 122.556L123.598 150.501C125.098 152.129 125.936 153.438 126.386 154.464C126.532 154.803 126.592 155.173 126.56 155.54C126.527 155.908 126.404 156.262 126.201 156.57C125.998 156.878 125.721 157.13 125.395 157.304C125.07 157.479 124.706 157.569 124.337 157.567H117.103C116.444 157.57 115.812 157.833 115.346 158.299C114.88 158.765 114.617 159.396 114.615 160.055C114.615 160.382 114.68 160.705 114.805 161.006C114.93 161.307 115.114 161.581 115.345 161.811C115.576 162.041 115.85 162.223 116.152 162.348C116.453 162.472 116.777 162.535 117.103 162.534H140.968C140.747 144.759 133.894 132.302 128.145 124.954C126.351 122.646 124.366 120.494 122.211 118.519" stroke="black" stroke-width="1.5" stroke-linecap="round" stroke-linejoin="round"/>
<path d="M150.931 140.278C150.931 140.278 168.845 134.273 192.727 135.802V162.532H181.583C181.143 162.532 180.722 162.357 180.411 162.046C180.1 161.736 179.926 161.314 179.926 160.875C179.926 160.47 180.074 160.079 180.343 159.776C180.611 159.472 180.982 159.278 181.384 159.229L183.933 158.906C184.358 158.853 184.749 158.646 185.032 158.325C185.315 158.004 185.472 157.59 185.471 157.162C185.471 156.906 185.415 156.654 185.308 156.422C185.2 156.19 185.044 155.984 184.849 155.819C184.654 155.654 184.425 155.533 184.179 155.466C183.933 155.398 183.675 155.384 183.423 155.427L140.968 162.537" stroke="black" stroke-width="1.5" stroke-linecap="round" stroke-linejoin="round"/>
<path d="M128.14 124.964C129.508 122.191 130.721 119.927 131.496 118.529" stroke="black" stroke-width="1.5" stroke-linecap="round" stroke-linejoin="round"/>
<path d="M119.705 157.572C118.76 154.639 119.018 150.746 119.948 146.535" stroke="black" stroke-width="1.5" stroke-linecap="round" stroke-linejoin="round"/>
<path d="M76.6118 132.521C76.6128 132.701 76.5783 132.879 76.5102 133.045C76.4419 133.211 76.3418 133.363 76.215 133.49C76.0884 133.617 75.9377 133.718 75.772 133.787C75.606 133.856 75.4281 133.892 75.2486 133.892C75.0272 133.895 74.8085 133.843 74.6119 133.741C74.6474 133.956 74.6644 134.174 74.6629 134.392V135.41C74.6637 136.446 74.253 137.439 73.5218 138.172C72.7904 138.904 71.798 139.317 70.7628 139.318H68.4762L68.4543 149.079C68.362 155.652 64.9089 155.786 64.9089 155.786V159.326H65.3026C65.5167 159.326 65.7286 159.369 65.9256 159.453C66.1227 159.536 66.3008 159.658 66.4495 159.812C66.6809 160.043 66.8376 160.337 66.8993 160.657C66.9611 160.978 66.9251 161.309 66.7958 161.609C66.6665 161.909 66.4503 162.162 66.1747 162.337C65.8994 162.512 65.5777 162.6 65.2516 162.59C64.4377 162.563 63.6286 162.455 62.8361 162.267C62.5195 162.491 62.1378 162.605 61.7499 162.59C59.2786 162.498 54.805 161.557 52.2608 156.296C50.5987 157.458 50.1685 158.138 47.9815 158.138C45.6451 158.14 43.3767 157.352 41.5445 155.903V159.329H41.9479C42.1619 159.333 42.3733 159.379 42.5697 159.464C42.766 159.55 42.9437 159.673 43.0921 159.827C43.2409 159.981 43.3577 160.163 43.4362 160.362C43.5147 160.562 43.5531 160.774 43.5492 160.989C43.5453 161.203 43.4994 161.414 43.4139 161.61C43.3283 161.807 43.2051 161.984 43.0511 162.133C42.897 162.282 42.715 162.399 42.5157 162.477C42.3165 162.555 42.1036 162.594 41.8895 162.59C40.954 162.564 40.025 162.427 39.1218 162.182V162.167C39.2931 162.015 39.4299 161.828 39.523 161.618C39.6158 161.408 39.6632 161.181 39.6612 160.952C39.6651 160.898 39.6651 160.843 39.6612 160.789L39.1291 162.157C38.8302 162.431 38.4387 162.583 38.0331 162.58H37.9821C34.0941 162.473 23.6451 160.094 26.7215 141.493C28.9085 128.32 40.8155 129.408 46.4628 134.689C47.9524 136.093 48.3412 137.763 48.018 139.284H51.0433V134.241C51.0441 131.375 52.183 128.626 54.2099 126.599C56.2367 124.573 58.9856 123.434 61.852 123.433H63.7231C64.5123 123.434 65.2936 123.59 66.0223 123.892C66.7513 124.195 67.4133 124.638 67.971 125.197C68.5284 125.755 68.9707 126.418 69.272 127.147C69.5735 127.876 69.7283 128.658 69.7276 129.447C70.5978 129.452 71.4517 129.684 72.205 130.119C72.9581 130.555 73.5843 131.181 74.0214 131.933C74.1568 131.655 74.3818 131.431 74.6603 131.298C74.9387 131.164 75.2542 131.128 75.5555 131.196C75.8568 131.265 76.1263 131.432 76.3202 131.673C76.5141 131.913 76.6213 132.212 76.6239 132.521H76.6118Z" fill="white"/>
<path d="M39.6564 160.969C39.6583 161.198 39.6112 161.425 39.5181 161.635C39.4251 161.845 39.2883 162.032 39.1169 162.184L39.6491 160.816C39.6549 160.867 39.6574 160.918 39.6564 160.969Z" fill="white"/>
<path d="M39.6564 160.969C39.6583 161.198 39.6112 161.425 39.5181 161.635C39.4251 161.845 39.2883 162.032 39.1169 162.184L39.6491 160.816C39.6549 160.867 39.6574 160.918 39.6564 160.969Z" fill="white"/>
<path d="M40.8764 149.079C42.0914 154.576 37.6323 155.796 37.6323 155.796V159.336H38.026C38.4583 159.337 38.8726 159.509 39.1783 159.815C39.484 160.12 39.6558 160.535 39.6565 160.967C39.6563 161.186 39.6123 161.402 39.5268 161.603C39.4415 161.805 39.3166 161.987 39.1596 162.139C39.0026 162.292 38.8167 162.411 38.6128 162.49C38.409 162.569 38.1912 162.606 37.9725 162.6C34.0699 162.488 23.6355 160.112 26.7143 141.51C28.9013 128.332 40.8083 129.423 46.4484 134.706C51.3351 139.301 44.361 146.768 39.3673 142.288C38.6957 141.677 38.068 141.02 37.489 140.322" stroke="black" stroke-width="1.5" stroke-linecap="round" stroke-linejoin="round"/>
<path d="M41.5372 155.908V159.336H41.9309C42.1459 159.335 42.3593 159.377 42.5583 159.458C42.7573 159.54 42.9381 159.66 43.0902 159.812C43.2423 159.965 43.3626 160.145 43.4445 160.344C43.5262 160.543 43.5675 160.757 43.5663 160.972C43.566 161.191 43.5218 161.407 43.4362 161.608C43.3507 161.809 43.2256 161.991 43.0681 162.143C42.9106 162.294 42.7245 162.413 42.5201 162.491C42.316 162.569 42.0983 162.605 41.8798 162.598C40.9443 162.571 40.015 162.433 39.1121 162.187" stroke="black" stroke-width="1.5" stroke-linecap="round" stroke-linejoin="round"/>
<path d="M62.8386 162.272C63.6293 162.465 64.438 162.573 65.2516 162.595C65.4696 162.604 65.6871 162.568 65.8907 162.49C66.0946 162.412 66.2805 162.293 66.4372 162.142C66.5939 161.99 66.7186 161.808 66.8034 161.607C66.8882 161.406 66.9315 161.19 66.9307 160.972C66.9266 160.538 66.7521 160.122 66.4447 159.815C66.2951 159.661 66.1162 159.539 65.9182 159.455C65.7204 159.372 65.5077 159.329 65.2929 159.329H64.909V155.799C64.909 155.799 68.3644 155.653 68.4568 149.077L68.4787 139.313" stroke="black" stroke-width="1.5" stroke-linecap="round" stroke-linejoin="round"/>
<path d="M51.0312 139.313H48.001" stroke="black" stroke-width="1.5" stroke-linecap="round" stroke-linejoin="round"/>
<path d="M64.7292 149.079C65.9539 154.571 61.4852 154.328 61.4852 154.328V159.331H61.8788C62.3138 159.336 62.7296 159.511 63.0379 159.817C63.2377 160.02 63.382 160.27 63.4564 160.545C63.531 160.82 63.5332 161.109 63.4632 161.384C63.3572 161.753 63.129 162.073 62.8163 162.294C62.5036 162.515 62.125 162.623 61.7427 162.599C59.269 162.507 54.7954 161.571 52.2463 156.308C50.5842 157.472 50.1589 158.155 47.9695 158.155C46.4228 158.155 44.8955 157.808 43.5007 157.14C42.1057 156.472 40.8783 155.499 39.9092 154.294" stroke="black" stroke-width="1.5" stroke-linecap="round" stroke-linejoin="round"/>
<path d="M64.9407 139.313H70.7727C71.8052 139.31 72.7939 138.897 73.5227 138.165C74.2515 137.434 74.6607 136.443 74.6607 135.411V134.402C74.6616 134.183 74.6454 133.963 74.6121 133.746" stroke="black" stroke-width="1.5" stroke-linecap="round" stroke-linejoin="round"/>
<path d="M74.0118 131.938C73.7909 131.557 73.5214 131.205 73.2099 130.893C72.7513 130.434 72.2065 130.07 71.6068 129.822C71.0073 129.574 70.3646 129.447 69.7155 129.448C69.7155 127.854 69.0827 126.326 67.9564 125.198C66.8301 124.071 65.3022 123.437 63.7086 123.436H61.8375C58.9713 123.437 56.2227 124.575 54.1961 126.603C52.1697 128.629 51.0313 131.378 51.0313 134.244V140.963C51.0157 141.703 51.1481 142.438 51.4203 143.126C51.6927 143.813 52.0995 144.44 52.6168 144.968C53.1344 145.496 53.7521 145.916 54.434 146.203C55.1156 146.489 55.8478 146.637 56.5875 146.637C57.3271 146.637 58.0593 146.489 58.7409 146.203C59.4228 145.916 60.0405 145.496 60.5581 144.968C61.0754 144.44 61.4822 143.813 61.7546 143.126C62.0268 142.438 62.1592 141.703 62.1436 140.963V132.351" stroke="black" stroke-width="1.5" stroke-linecap="round" stroke-linejoin="round"/>
<path d="M74.6119 133.738C74.8071 133.842 75.025 133.896 75.2462 133.894C75.4918 133.895 75.7331 133.83 75.945 133.706C76.1567 133.581 76.3312 133.402 76.45 133.188C76.5688 132.973 76.6276 132.73 76.6201 132.484C76.6125 132.239 76.5392 132 76.4077 131.792C76.276 131.585 76.0908 131.417 75.8719 131.306C75.6529 131.195 75.408 131.144 75.1631 131.161C74.9179 131.177 74.6817 131.258 74.479 131.397C74.2766 131.536 74.115 131.727 74.0117 131.95" stroke="black" stroke-width="1.5" stroke-linecap="round" stroke-linejoin="round"/>
<path d="M65.5383 130.478C65.5383 130.478 66.0243 129.141 68.0218 129.428" stroke="black" stroke-width="1.5" stroke-linecap="round" stroke-linejoin="round"/>
<path d="M53.347 124.439C53.347 124.439 53.0116 127.428 54.9581 126.906C56.9045 126.383 56.9288 124.899 57.2447 126.177C57.5606 127.455 59.3709 128.364 60.5859 126.86C61.8009 125.355 61.0865 127.47 61.7742 127.873C62.4619 128.276 64.2577 128.442 64.9794 127.056C65.7011 125.671 66.2527 125.579 66.6998 126.772C67.1469 127.965 71.2609 125.088 71.2585 124.767C71.2561 124.447 73.8732 123.224 73.8732 123.224L72.7627 119.13C72.7627 119.13 71.1807 118.175 70.7919 118.085C70.4031 117.995 69.6571 118.024 69.2683 117.815C68.8795 117.606 64.6173 116.51 64.6173 116.51C64.6173 116.51 53.4636 119.363 53.347 124.439Z" fill="white"/>
<path d="M57.6456 124.196C57.597 124.325 57.546 124.461 57.495 124.59C57.4908 124.613 57.4835 124.635 57.4731 124.656C57.2602 125.134 57.1812 125.662 57.2447 126.182C57.3443 126.719 57.7477 127.521 58.3066 127.657C59.9395 128.067 60.7366 126.928 61.2736 125.63C61.6017 124.84 61.8471 123.995 62.1338 123.399C62.4988 122.644 63.0101 121.97 63.638 121.414" stroke="black" stroke-width="1.5" stroke-linecap="round" stroke-linejoin="round"/>
<path d="M57.7259 123.953C57.704 124.033 57.6748 124.104 57.6457 124.196C57.6029 124.33 57.5526 124.461 57.495 124.59C57.4909 124.612 57.4836 124.635 57.4732 124.655C57.0017 125.751 56.1901 126.74 54.9581 126.913C53.5681 127.097 52.6934 124.884 53.9691 122.619C53.9674 122.614 53.9674 122.609 53.9691 122.604" stroke="black" stroke-width="1.5" stroke-linecap="round" stroke-linejoin="round"/>
<path d="M61.264 125.625C61.264 125.625 60.8703 128.541 63.1059 128.298C65.7012 128.018 64.9187 125.015 68.2454 122.527" stroke="black" stroke-width="1.5" stroke-linecap="round" stroke-linejoin="round"/>
<path d="M65.9832 125.452C66.3549 126.334 67.1301 126.871 68.0972 126.757C69.4726 126.585 70.2478 125.394 71.1785 124.519C71.2076 124.5 71.2295 124.471 71.2587 124.449C71.7989 123.957 72.4419 123.592 73.141 123.38C73.8401 123.168 74.5776 123.115 75.2998 123.224C75.2998 123.224 83.5496 125.43 95.097 118.529" stroke="black" stroke-width="1.5" stroke-linecap="round" stroke-linejoin="round"/>
<path d="M120.199 90.8255C126.027 82.3317 129.14 72.27 129.129 61.9692" stroke="black" stroke-width="1.5" stroke-linecap="round" stroke-linejoin="round"/>
<path d="M57.7258 123.953C57.7258 123.953 58.5642 122.084 59.7524 121.202" stroke="black" stroke-width="1.5" stroke-linecap="round" stroke-linejoin="round"/>
<path d="M107.985 30.0869L123.832 39.3209C102.934 32.9422 98.1877 66.2283 97.1015 80.9638C97.1015 80.9638 96.1295 101.971 75.404 111.633L72.3811 113.013C69.7502 114.201 67.0164 115.147 64.2139 115.839C55.2691 118.08 53.9739 122.612 53.9739 122.612" stroke="black" stroke-width="1.5" stroke-linecap="round" stroke-linejoin="round"/>
<path d="M106.093 46.3708L104.178 43.5107" stroke="black" stroke-width="1.5" stroke-linecap="round" stroke-linejoin="round"/>
<path d="M91.3135 40.3778L94.9779 43.9183C95.0272 43.9667 95.0865 44.0041 95.1517 44.0277C95.2168 44.0515 95.286 44.061 95.355 44.0556C95.4241 44.0503 95.4911 44.0303 95.5519 43.9971C95.6126 43.9638 95.6654 43.9178 95.7069 43.8624L96.137 43.2865C96.2026 43.2865 104.773 47.9035 105.74 39.8845" stroke="black" stroke-width="1.5" stroke-linecap="round" stroke-linejoin="round"/>
<path d="M107.777 28.4229C107.777 28.4229 114.872 28.9623 119.054 33.8588C121.612 36.8377 124.627 39.3911 127.987 41.4234" stroke="black" stroke-width="1.5" stroke-miterlimit="10"/>
<path d="M90.2272 22.0879C83.4548 26.2845 84.23 37.4941 89.8287 39.9605C91.9647 40.9034 98.0907 41.1342 97.4273 37.375C96.9607 34.7701 98.3993 34.425 100.829 35.312C102.343 35.8587 104.003 35.7761 105.203 34.6121C105.44 34.382 105.652 34.1268 105.835 33.8515" stroke="black" stroke-width="1.5" stroke-miterlimit="10"/>
<path d="M219.7 162.532C218.534 162.532 9.70923 162.532 9.70923 162.532" stroke="black" stroke-width="1.5" stroke-linecap="round" stroke-linejoin="round"/>
<path d="M163.234 101.454C163.234 105.981 161.436 110.322 158.235 113.523C155.034 116.724 150.693 118.522 146.166 118.522H115.696" stroke="black" stroke-width="1.5" stroke-linecap="round" stroke-linejoin="round"/>
<path d="M116.782 143.089C116.782 143.089 114.481 151.128 115.696 153.524C116.911 155.92 118.891 154.027 119.098 152.054" stroke="black" stroke-width="1.5" stroke-linecap="round" stroke-linejoin="round"/>
</svg>
