<svg width="190" height="190" viewBox="0 0 190 190" fill="none" xmlns="http://www.w3.org/2000/svg">
<path d="M33.6699 86.9156C39.9228 78.1756 49.2936 74.2141 49.2936 74.2141C49.5995 74.0868 48.2961 62.113 48.2695 61.2637C47.8743 47.2759 50.1942 32.7219 60.7088 22.6215C73.853 10.0035 97.7018 7.38913 112.78 18.0196C112.59 17.879 117.741 13.8187 118.176 13.5584C120.99 11.86 124.166 10.8503 127.444 10.6115C140.638 9.66153 152.737 20.028 157.687 32.568C162.636 45.108 161.5 73.6802 152.42 81.9205" stroke="#C5EE9B" stroke-opacity="0.3" stroke-width="1.5" stroke-miterlimit="10"/>
<path d="M28.0327 102.078C28.3578 98.6353 29.2428 95.2691 30.6528 92.1121C30.7871 91.8119 30.9277 91.5179 31.0746 91.2305" stroke="#C5EE9B" stroke-opacity="0.3" stroke-width="1.5" stroke-miterlimit="10"/>
<path d="M44.3384 138.451C42.8184 137.07 41.4105 135.664 40.1204 134.25" stroke="#CCDDE2" stroke-width="5.05" stroke-miterlimit="10"/>
<path d="M171 97.3713C171.011 98.3213 171 99.2903 170.954 100.261C170.685 106.267 169.398 112.474 166.183 117.532C165.598 118.465 164.945 119.354 164.23 120.192C157.39 119.29 156.37 112.313 148.46 108.368C138.985 103.632 123.47 105.328 123.47 105.328L131.113 98.2776C130.705 77.0432 115.115 78.3466 115.115 78.3466L114.323 80.2865C114.925 78.5296 115.533 76.8912 116.149 75.3712L116.183 75.2914C123.403 57.3592 130.883 55.1362 136.703 52.5465C138.093 52.2163 139.517 52.0466 140.946 52.0411C155.825 51.9613 164.557 67.1138 168.376 79.3118C169.326 82.3518 170.787 88.8536 170.983 96.1648C170.987 96.5562 171 96.9647 171 97.3713Z" fill="#2E2E2E"/>
<path d="M179.36 176.959C178.205 178.549 176.299 179.415 174.335 179.415H151.763C150.895 179.428 150.035 179.258 149.237 178.919C148.439 178.578 147.721 178.075 147.128 177.441C147.117 177.441 147.128 177.441 147.128 177.441C147.048 177.36 146.973 177.274 146.904 177.183C146.197 176.307 145.755 175.247 145.629 174.128C145.515 173.1 146.279 172.186 147.313 172.228C147.704 172.243 148.077 172.399 148.362 172.668C148.647 172.937 148.825 173.3 148.863 173.691C148.863 173.772 148.88 173.852 148.892 173.932C148.975 174.396 149.179 174.829 149.483 175.19C149.751 175.507 150.088 175.759 150.468 175.927C150.848 176.096 151.262 176.175 151.677 176.161H174.431C174.839 176.168 175.243 176.086 175.616 175.922C175.989 175.758 176.322 175.515 176.592 175.211C176.896 174.858 177.104 174.432 177.195 173.975C177.285 173.519 177.256 173.046 177.109 172.604L166.945 142.384C166.862 142.153 166.764 141.926 166.651 141.708C166.054 140.448 165.109 139.385 163.926 138.646C162.744 137.907 161.374 137.523 159.98 137.539C155.701 137.591 150.269 137.602 149.758 137.602C138.371 137.56 133.19 137.56 130.34 137.636C130.536 136.936 130.889 136.29 131.374 135.748C131.374 135.748 131.385 135.736 131.385 135.731C132.08 134.99 133.031 134.542 134.045 134.478C138.267 134.133 142.447 133.502 146.507 132.4C153.672 130.458 160.506 127.127 165.254 121.771C167.566 119.179 169.313 116.134 170.384 112.83C171.216 110.207 171.741 107.495 171.946 104.751C172.02 103.885 172.065 103.012 172.083 102.133V102.093C172.083 101.892 172.094 101.684 172.094 101.483C172.12 100.231 172.063 98.9787 171.923 97.7344C173.164 97.7441 174.352 98.236 175.237 99.1062C175.315 99.3108 175.372 99.5228 175.408 99.7389C175.442 99.9435 175.46 100.151 175.459 100.358V124.935C175.461 126.613 175.13 128.276 174.485 129.825C173.839 131.375 172.892 132.781 171.699 133.962C169.723 135.919 169.161 138.888 170.098 141.501L180.198 171.555C180.503 172.457 180.586 173.419 180.44 174.359C180.295 175.3 179.924 176.192 179.36 176.959Z" fill="#B0CB93"/>
<path d="M40.1223 176.2V107.3H44.3384V176.229L40.1223 176.2Z" fill="#2E2E2E"/>
<path d="M123.471 105.319C126.491 104.998 129.983 104.618 133.336 104.694" stroke="black" stroke-width="1.5" stroke-miterlimit="10"/>
<path d="M107.025 108.362C101.678 109.711 96.4763 111.659 92.0379 114.896C84.5899 120.323 81.1851 130.446 84.2289 139.216C84.2289 139.228 96.1989 173.757 96.1989 173.757H93.0487C92.3698 173.756 91.6976 173.89 91.0708 174.151C90.444 174.412 89.8751 174.795 89.3969 175.277C88.4602 176.208 87.9985 177.76 87.9985 179.185H116.352L105.577 143.94C105.309 143.071 105.248 142.151 105.401 141.255C105.554 140.358 105.915 139.51 106.457 138.78C106.998 138.049 107.704 137.456 108.517 137.049C109.33 136.641 110.227 136.431 111.137 136.435C117.276 136.608 122.977 136.843 129.187 136.574" stroke="black" stroke-width="1.5" stroke-miterlimit="10"/>
<path d="M171.044 100.548V100.51C170.768 93.0999 170.396 85.7887 168.368 79.3059C164.549 67.1079 155.817 51.9554 140.938 52.0352C139.509 52.0407 138.086 52.2104 136.695 52.5406C126.888 54.8719 120.076 64.921 116.175 75.2855L116.141 75.3653C115.769 76.3596 115.424 77.3514 115.108 78.3407C114.893 79.0065 114.628 79.655 114.315 80.2806C113.12 82.6885 111.226 84.6797 108.881 85.9934C106.536 87.307 103.849 87.882 101.171 87.6431C83.1592 86.0053 59.4206 85.0705 51.9441 97.7264" stroke="black" stroke-width="1.5" stroke-miterlimit="10"/>
<path d="M141.569 86.7654C138.947 89.9308 136.186 92.9879 133.333 95.9443C127.49 102.001 122.449 108.435 113.383 108.864C106.149 109.212 99.2637 106.436 92.4237 104.511C85.1068 102.454 81.4037 100.808 74.5846 98.7297C72.6208 98.1335 70.5834 97.8137 68.5312 97.7797L61.6665 97.8329" stroke="black" stroke-width="1.5" stroke-miterlimit="10"/>
<path d="M114.794 174.202C115.448 173.909 116.157 173.758 116.873 173.761H120.031C120.031 173.761 113.43 160.93 108.152 152.39" stroke="black" stroke-width="1.5" stroke-miterlimit="10"/>
<path d="M119.13 136.603L141.208 179.415H116.234H111.705" stroke="black" stroke-width="1.5" stroke-miterlimit="10"/>
<path d="M179.36 176.959C178.205 178.549 176.299 179.415 174.335 179.415H151.763C149.891 179.415 148.065 178.64 146.899 177.177C146.191 176.301 145.749 175.241 145.624 174.122C145.51 173.094 146.273 172.18 147.307 172.222C147.699 172.237 148.072 172.394 148.357 172.663C148.642 172.932 148.82 173.295 148.857 173.685C148.904 174.237 149.12 174.761 149.477 175.184C149.749 175.496 150.087 175.745 150.466 175.913C150.845 176.081 151.257 176.163 151.671 176.155H174.431C174.839 176.162 175.243 176.081 175.616 175.917C175.988 175.753 176.322 175.51 176.592 175.205C176.896 174.852 177.104 174.427 177.195 173.97C177.285 173.513 177.256 173.04 177.109 172.598L166.945 142.384C166.431 140.954 165.484 139.719 164.236 138.851C162.988 137.983 161.5 137.524 159.98 137.539C155.701 137.591 150.269 137.602 149.758 137.602C137.079 137.562 132.088 137.562 129.443 137.659C129.402 137.659 129.361 137.65 129.323 137.634C129.285 137.618 129.251 137.595 129.222 137.566C129.193 137.537 129.17 137.502 129.155 137.464C129.139 137.426 129.131 137.385 129.132 137.344C129.128 136.171 129.558 135.038 130.34 134.163C130.343 134.161 130.346 134.158 130.348 134.155C130.35 134.152 130.351 134.148 130.351 134.144C131.047 133.405 131.998 132.958 133.011 132.894C137.233 132.548 141.413 131.917 145.474 130.815C152.638 128.874 159.473 125.543 164.221 120.187C166.532 117.594 168.279 114.549 169.351 111.245C170.18 108.623 170.702 105.913 170.907 103.17C170.982 102.301 171.027 101.429 171.044 100.552V100.51C171.044 100.311 171.055 100.104 171.055 99.9023C171.081 98.6502 171.024 97.3979 170.884 96.1536C172.951 96.1422 175.036 97.6451 175.397 99.7427C175.431 99.9474 175.448 100.154 175.448 100.362V124.935C175.45 126.613 175.119 128.276 174.473 129.825C173.828 131.375 172.881 132.781 171.688 133.962C169.712 135.919 169.149 138.888 170.086 141.501L180.187 171.555C180.493 172.456 180.578 173.417 180.434 174.358C180.291 175.299 179.922 176.191 179.36 176.959Z" stroke="black" stroke-width="1.5" stroke-miterlimit="10"/>
<path d="M70.9156 102.08H12.1087C10.6679 102.08 9.5 103.248 9.5 104.689V104.69C9.5 106.131 10.6679 107.299 12.1087 107.299H70.9156C72.3564 107.299 73.5243 106.131 73.5243 104.69V104.689C73.5243 103.248 72.3564 102.08 70.9156 102.08Z" stroke="black" stroke-width="1.5" stroke-miterlimit="10"/>
<path d="M54.2621 176.527H30.4836C29.6766 176.527 29.0225 177.181 29.0225 177.988C29.0225 178.795 29.6766 179.449 30.4836 179.449H54.2621C55.069 179.449 55.7232 178.795 55.7232 177.988C55.7232 177.181 55.069 176.527 54.2621 176.527Z" stroke="black" stroke-width="1.5" stroke-miterlimit="10"/>
<path d="M36.8335 99.7371V99.9993C36.8715 101.802 38.5682 102.078 40.0312 102.089L68.3146 102.07C69.5534 102.07 70.5756 101.12 70.5775 99.9537V99.9043C70.5547 98.7643 69.5591 97.8352 68.3355 97.8333C68.3355 97.8333 52.5123 97.7763 40.2573 97.7402C40.0369 98.3824 39.4783 98.8802 38.781 99.2868C38.1812 99.6013 37.5105 99.7563 36.8335 99.7371Z" stroke="black" stroke-width="1.5" stroke-miterlimit="10"/>
<path d="M21.28 74.3338C21.2859 74.634 21.3717 74.9272 21.5289 75.1831L34.6389 97.2022C34.8085 97.4669 35.0312 97.6937 35.2927 97.8683C35.5543 98.0429 35.8492 98.1615 36.1589 98.2168C36.6827 98.32 37.2255 98.2611 37.715 98.0477C38.5187 97.6905 38.9823 96.9704 38.9671 96.2408C38.9642 96.149 38.9547 96.0574 38.9386 95.9672C38.8983 95.766 38.8236 95.5731 38.7182 95.3972L25.6082 73.3781C25.0382 72.4148 23.6436 72.0367 22.5226 72.5326C21.7227 72.8822 21.2591 73.6023 21.28 74.3338Z" stroke="black" stroke-width="1.5" stroke-miterlimit="10"/>
<path d="M56.7302 97.8331C56.7302 97.8331 58.3091 96.3302 61.94 93.9438" stroke="black" stroke-width="1.5" stroke-miterlimit="10"/>
<path d="M69.6047 73.1329L63.8496 79.515C63.4489 79.9596 62.8926 80.2334 62.2958 80.2798C61.6988 80.3261 61.1069 80.1415 60.6424 79.7639C60.3857 79.5555 60.1763 79.2952 60.0277 79C59.8792 78.7047 59.7948 78.3813 59.7805 78.0511C59.7661 77.7209 59.822 77.3912 59.9443 77.0842C60.0667 76.7771 60.2529 76.4996 60.4904 76.2698L61.543 75.2514C61.5829 75.1944 61.6285 75.1431 61.6741 75.0899L62.4341 74.252L68.9701 67.1498C69.7633 66.2779 70.7624 65.6188 71.8758 65.2326C72.9893 64.8461 74.182 64.745 75.3446 64.9382L75.4415 64.9553" stroke="black" stroke-width="1.5" stroke-miterlimit="10"/>
<path d="M77.7099 74.8602H71.9529C71.2978 74.8602 70.6696 74.5999 70.2064 74.1366C69.7432 73.6734 69.4829 73.0453 69.4829 72.3902C69.4829 71.735 69.7432 71.1069 70.2064 70.6437C70.6696 70.1805 71.2978 69.9202 71.9529 69.9202H80.1229" stroke="black" stroke-width="1.5" stroke-miterlimit="10"/>
<path d="M73.2962 74.8601C73.2164 75.869 72.8307 76.6157 72.2626 77.1401C70.7996 78.4701 68.1168 78.3238 66.251 77.4099" stroke="black" stroke-width="1.5" stroke-miterlimit="10"/>
<path d="M62.4435 74.2482C60.7886 72.2551 61.1287 69.5457 62.415 67.45C67.7255 58.7784 77.8487 64.1193 84.5044 67.8566C88.4665 70.092 92.2538 72.6237 95.8341 75.43C99.0033 77.9 101.937 80.8564 105.745 82.3422C108.025 83.2333 110.717 83.4461 112.985 82.4182" stroke="black" stroke-width="1.5" stroke-miterlimit="10"/>
<path d="M72.2627 77.1252C76.2787 80.0894 80.1133 83.2917 83.7463 86.7145" stroke="black" stroke-width="1.5" stroke-miterlimit="10"/>
<path d="M121.127 30.5098C122.088 31.3876 123.565 31.4351 124.786 31.3173C126.348 31.1748 127.895 30.7967 129.424 30.4775L130.353 30.43H130.367C130.545 30.4319 130.721 30.4686 130.885 30.5385C131.049 30.6082 131.197 30.7097 131.322 30.8368C131.447 30.9641 131.545 31.1146 131.612 31.2799C131.678 31.4452 131.712 31.6219 131.71 31.7999C131.731 33.8052 131.531 35.8066 131.113 37.7678L132.894 38.7311C133.124 38.0889 132.865 37.1636 133.41 37.0933C133.76 36.4416 134.281 36.0179 135.098 36.5024C136.697 37.4524 137.328 40.2435 135.787 41.5222L136.775 43.369C137.12 44.0165 137.678 44.5242 138.355 44.8056C139.032 45.087 139.786 45.1246 140.488 44.9118L139.479 42.6812C141.846 43.1011 143.503 40.1466 142.781 38.3435C142.289 37.1047 142.314 36.1414 142.971 34.9368C143.015 34.8551 142.568 34.7468 142.606 34.6632C142.629 33.7797 142.384 32.8335 141.959 32.3832C141.21 31.5776 139.703 31.4332 140.011 30.2096C140.148 29.6772 140.198 29.1262 140.161 28.5775C140.081 27.8603 139.848 27.1685 139.478 26.5489C139.108 25.9291 138.609 25.3958 138.016 24.9846C136.77 24.1657 135.375 24.9086 134.043 24.8877C132.426 24.8706 131.267 23.4988 129.573 23.4779C128.729 23.4646 128.052 23.7933 127.33 24.2018C126.726 24.5495 126.132 24.9124 125.554 25.3057C124.976 25.699 124.463 26.0391 123.774 26.041C122.875 26.0524 122.007 25.4824 121.102 25.7484C120.645 25.8715 120.243 26.1463 119.962 26.5274C119.675 27.9296 120.194 29.6643 121.127 30.5098Z" fill="#B0CB93"/>
<path d="M132.901 38.5227C133.017 38.0278 133.188 37.5473 133.41 37.0901C133.76 36.4384 134.282 36.0147 135.098 36.4992C136.697 37.4492 137.328 40.2403 135.787 41.519L136.775 43.3658C137.12 44.0132 137.678 44.521 138.355 44.8024C139.032 45.0838 139.786 45.1212 140.488 44.9086" stroke="black" stroke-width="1.5" stroke-linecap="round" stroke-linejoin="round"/>
<path d="M139.479 42.678L140.484 44.9124C140.737 45.4463 141.461 47.0879 142.219 48.7941C142.758 50.0158 143.321 51.2736 143.739 52.1989" stroke="black" stroke-width="1.5" stroke-linecap="round" stroke-linejoin="round"/>
<path d="M123.198 34.6544C123.198 34.6544 126.16 33.9172 127.454 36.163" stroke="black" stroke-width="1.5" stroke-miterlimit="10"/>
<path d="M124.07 41.3594C123.272 41.5779 122.199 41.7736 121.583 41.0782L122.924 38.2548C123.25 37.5624 123.331 36.7798 123.152 36.0356C122.86 34.7835 122.128 32.8816 122.913 31.2305" stroke="black" stroke-width="1.5" stroke-miterlimit="10"/>
<path d="M126.063 37.5754C126.288 37.2024 126.115 36.6858 125.676 36.4215C125.237 36.1572 124.7 36.2452 124.475 36.6182C124.25 36.9911 124.423 37.5077 124.862 37.772C125.301 38.0365 125.838 37.9484 126.063 37.5754Z" fill="black"/>
<path d="M130.386 55.3512L129.683 47.5498" stroke="black" stroke-width="1.5" stroke-miterlimit="10"/>
<path d="M132.894 38.7273C132.894 38.6589 132.894 38.5886 132.894 38.5202C132.897 38.4469 132.897 38.3733 132.894 38.2998" stroke="black" stroke-width="2" stroke-linecap="round" stroke-linejoin="round"/>
<path d="M132.895 38.7301L132.284 38.4014L131.113 37.7649" stroke="black" stroke-width="2" stroke-linecap="round" stroke-linejoin="round"/>
<path d="M127.997 41.5603C127.997 41.5603 127.938 43.5363 125.679 44.3495" stroke="black" stroke-width="1.5" stroke-miterlimit="10"/>
<path d="M139.479 42.6779C141.846 43.0978 143.503 40.1433 142.781 38.3402C142.289 37.1014 142.314 36.1381 142.971 34.9335C143.015 34.8518 143.051 34.772 143.089 34.6922C143.577 33.6149 143.404 32.5471 142.637 31.6313C141.909 30.7649 140.813 30.4609 141.128 29.1974C141.27 28.6489 141.322 28.0811 141.284 27.5159C141.202 26.7781 140.963 26.0666 140.583 25.4291C140.202 24.7917 139.69 24.2431 139.08 23.8204C137.799 22.9711 136.357 23.7406 134.978 23.7197C133.317 23.695 132.118 22.2814 130.376 22.2605C129.504 22.2605 128.801 22.5854 128.06 23.0072C127.437 23.3663 126.819 23.7444 126.23 24.1472C125.641 24.55 125.09 24.9072 124.391 24.9072C123.464 24.9072 122.569 24.3372 121.642 24.6032C120.715 24.8692 120.164 25.6368 119.981 26.526C119.685 27.9206 120.203 29.6629 121.136 30.516C122.098 31.3938 123.574 31.4413 124.796 31.3235C126.358 31.181 127.904 30.8029 129.434 30.4837L130.363 30.4362H130.376C130.554 30.4379 130.73 30.4748 130.894 30.5445C131.058 30.6144 131.207 30.7157 131.331 30.843C131.456 30.9701 131.555 31.1208 131.621 31.2859C131.688 31.4512 131.721 31.6279 131.719 31.8061C131.741 33.8114 131.541 35.8126 131.123 37.774" stroke="black" stroke-width="1.5" stroke-miterlimit="10"/>
<path d="M133.253 44.84C133.253 44.84 129.722 49.5292 126.586 48.4785C123.449 47.4278 123.289 41.6233 123.289 41.6233" stroke="black" stroke-width="1.5" stroke-linecap="round" stroke-linejoin="round"/>
<path d="M40.1223 176.2V107.3H44.3384V176.228" stroke="black" stroke-width="1.5" stroke-miterlimit="10"/>
<path d="M44.0021 67.2088C47.7609 67.2088 50.8079 64.1617 50.8079 60.403C50.8079 56.6442 47.7609 53.5972 44.0021 53.5972C40.2433 53.5972 37.1963 56.6442 37.1963 60.403C37.1963 64.1617 40.2433 67.2088 44.0021 67.2088Z" fill="#B0CB93" fill-opacity="0.7"/>
<path d="M41.3402 62.1586C41.141 62.0226 40.9643 61.8565 40.8158 61.6665C40.553 61.3412 40.4187 60.931 40.4378 60.5134C40.457 60.0958 40.6288 59.6996 40.9203 59.3998C41.1104 59.2041 41.3434 59.055 41.6008 58.9643C41.8583 58.8737 42.1332 58.8439 42.4042 58.8773C42.3441 58.5006 42.4083 58.1143 42.5873 57.7772C42.7661 57.4402 43.05 57.1704 43.3956 57.0089C43.7414 56.8474 44.1303 56.8025 44.5035 56.8816C44.8768 56.9606 45.2144 57.159 45.4651 57.4466C45.9952 58.047 46.2441 58.94 46.3372 59.7266C46.3852 60.1372 46.3917 60.5518 46.3562 60.9635C46.3391 61.1706 46.265 62.3657 46.0712 62.4417C44.7906 62.9319 42.6075 63.0383 41.3402 62.1586Z" fill="white"/>
<path d="M92.0208 65.6031C94.0356 65.6031 95.6688 63.9699 95.6688 61.9551C95.6688 59.9404 94.0356 58.3071 92.0208 58.3071C90.006 58.3071 88.3728 59.9404 88.3728 61.9551C88.3728 63.9699 90.006 65.6031 92.0208 65.6031Z" fill="#B0CB93" fill-opacity="0.7"/>
<path d="M91.7699 60.2644C91.8809 60.1974 92.0023 60.1493 92.129 60.1219C92.347 60.0695 92.5765 60.0986 92.7745 60.2034C92.9726 60.3085 93.1254 60.4822 93.2044 60.6919C93.2559 60.8289 93.2749 60.9762 93.2601 61.1219C93.2453 61.2674 93.197 61.4079 93.1189 61.5317C93.311 61.5927 93.4788 61.7134 93.5979 61.8762C93.7169 62.039 93.7811 62.2353 93.7811 62.4371C93.7811 62.6387 93.7169 62.8351 93.5979 62.998C93.4788 63.1606 93.311 63.2813 93.1189 63.3424C92.6838 63.4376 92.2305 63.4046 91.8136 63.2474C91.6037 63.1766 91.4011 63.085 91.2094 62.9738C91.1125 62.9187 90.5482 62.6109 90.5577 62.4988C90.6128 61.7616 91.0593 60.6786 91.7699 60.2644Z" fill="white"/>
<path d="M63.7355 57.7941C64.1444 58.1353 64.6008 58.415 65.0902 58.6244C65.9916 59.0006 66.9752 59.1363 67.9448 59.0181C68.9143 58.8999 69.8366 58.5319 70.6211 57.9499C71.2291 57.4863 71.7611 56.846 72.39 56.3805C72.8287 56.0368 73.3556 55.8234 73.91 55.7649C74.0943 55.7702 74.2773 55.7316 74.4439 55.6528C74.8657 55.3906 74.3679 54.9555 74.3242 54.6477C74.2657 54.1554 74.3894 53.6587 74.6719 53.2512C75.3935 52.175 75.7209 50.8823 75.598 49.5922C75.4752 48.3023 74.91 47.0944 73.9982 46.1737C73.0864 45.253 71.884 44.6759 70.5955 44.5405C69.3067 44.4052 68.0107 44.7198 66.9275 45.4308C65.8578 46.1319 65.0636 47.1712 64.258 48.1649C63.5474 49.0408 62.8045 49.9034 62.2839 50.9047C61.0603 53.2588 61.7747 56.1582 63.7355 57.7941Z" fill="#B0CB93" fill-opacity="0.7"/>
<path d="M70.9916 50.0347C71.6642 50.0347 72.2095 49.4894 72.2095 48.8168C72.2095 48.144 71.6642 47.5989 70.9916 47.5989C70.319 47.5989 69.7737 48.144 69.7737 48.8168C69.7737 49.4894 70.319 50.0347 70.9916 50.0347Z" fill="white"/>
<path d="M68.6356 52.915C69.3082 52.915 69.8535 52.3697 69.8535 51.6971C69.8535 51.0245 69.3082 50.4792 68.6356 50.4792C67.963 50.4792 67.4177 51.0245 67.4177 51.6971C67.4177 52.3697 67.963 52.915 68.6356 52.915Z" fill="white"/>
<path d="M66.4259 55.6189C67.0985 55.6189 67.6438 55.0736 67.6438 54.401C67.6438 53.7284 67.0985 53.1831 66.4259 53.1831C65.7533 53.1831 65.208 53.7284 65.208 54.401C65.208 55.0736 65.7533 55.6189 66.4259 55.6189Z" fill="white"/>
<g opacity="0.46">
<path opacity="0.46" d="M101.65 42.9952C101.555 43.4723 101.354 43.9218 101.063 44.3115C100.772 44.701 100.397 45.0206 99.9666 45.2467L89.8092 50.6427C89.4262 50.8472 89.0065 50.9739 88.5742 51.0159C88.1422 51.0577 87.7059 51.0138 87.2908 50.8867C86.8756 50.7596 86.4895 50.5519 86.155 50.2753C85.8202 49.9986 85.5433 49.6585 85.3404 49.2747L77.2445 34.031C76.8343 33.2579 76.7479 32.3537 77.004 31.5167C77.2601 30.68 77.8379 29.9789 78.6106 29.5679L88.7756 24.1738C90.3051 23.3606 92.416 23.9838 93.2368 25.5399L101.335 40.7779C101.699 41.4564 101.811 42.2421 101.65 42.9952Z" fill="#B0CB93"/>
</g>
<path d="M98.6346 41.8403L88.7299 38.065C88.6037 38.016 88.499 37.9236 88.4346 37.8047C88.3702 37.6856 88.3503 37.5474 88.3784 37.4152L90.6755 26.8493C90.7015 26.7368 90.761 26.635 90.8463 26.5573C90.9314 26.4794 91.0382 26.4292 91.1524 26.4134C91.2666 26.3975 91.3831 26.4167 91.4862 26.4683C91.5892 26.52 91.6743 26.6019 91.73 26.703L99.3376 41.0404C99.3914 41.1424 99.4128 41.2585 99.3994 41.3731C99.3857 41.4876 99.3376 41.5956 99.2614 41.6822C99.1852 41.7688 99.0845 41.8304 98.9726 41.8587C98.8607 41.8868 98.7427 41.8804 98.6346 41.8403Z" fill="white"/>
<g opacity="0.46">
<path opacity="0.46" d="M113.43 53.6027C113.638 53.7517 113.81 53.9455 113.932 54.1699C114.055 54.3941 114.127 54.6432 114.14 54.8985L114.52 60.9386C114.535 61.1666 114.504 61.3952 114.43 61.6112C114.356 61.8275 114.24 62.0268 114.089 62.198C113.938 62.3691 113.754 62.5088 113.549 62.6089C113.343 62.7091 113.12 62.7678 112.892 62.7816L103.827 63.3402C103.368 63.3678 102.916 63.212 102.572 62.907C102.227 62.6023 102.017 62.1731 101.988 61.7138L101.618 55.6699C101.601 55.2136 101.761 54.7684 102.063 54.4262C102.365 54.084 102.787 53.8708 103.242 53.8307L112.305 53.2607C112.709 53.2381 113.107 53.3593 113.43 53.6027Z" fill="#B0CB93"/>
</g>
<path d="M112.225 54.7959L108.258 58.7232C108.208 58.7709 108.142 58.7998 108.073 58.8045C108.004 58.8095 107.935 58.7901 107.878 58.7498L103.318 55.3488C103.27 55.3121 103.233 55.2614 103.215 55.2035C103.196 55.1455 103.195 55.083 103.212 55.0247C103.23 54.9663 103.265 54.9149 103.313 54.8769C103.361 54.8391 103.419 54.8168 103.48 54.813L112.007 54.2867C112.067 54.2852 112.125 54.3015 112.176 54.3338C112.226 54.366 112.265 54.4125 112.289 54.4674C112.312 54.5221 112.319 54.5827 112.308 54.6414C112.296 54.7 112.268 54.7537 112.225 54.7959Z" fill="white"/>
<g opacity="0.46">
<path opacity="0.46" d="M51.8699 86.7939C51.275 86.8917 50.6735 86.9426 50.0706 86.9459C44.2984 86.9459 44.4922 81.5936 44.4922 81.5936L49.2745 82.6272C49.0938 82.1845 49.0247 81.7042 49.0731 81.2284C49.1214 80.7526 49.2859 80.2961 49.5519 79.8988C50.6463 78.299 53.1885 79.1217 53.1885 79.1217L54.7693 78.1033L54.4273 80.0033L56.5458 79.6461L55.4571 80.9058C56.9201 82.3118 58.784 86.5925 54.2886 88.8174C49.7932 91.0423 47.8533 88.3766 47.8533 88.3766L50.0706 86.9478L51.8699 86.7939Z" fill="#B0CB93"/>
</g>
<path d="M51.7751 81.5595C52.157 81.5595 52.4667 81.25 52.4667 80.8679C52.4667 80.486 52.157 80.1763 51.7751 80.1763C51.3932 80.1763 51.0835 80.486 51.0835 80.8679C51.0835 81.25 51.3932 81.5595 51.7751 81.5595Z" fill="white"/>
<path d="M63.8306 179.415H142.922" stroke="black" stroke-width="1.5" stroke-miterlimit="10"/>
</svg>
