<svg width="384" height="784" viewBox="0 0 384 784" fill="none" xmlns="http://www.w3.org/2000/svg">
<rect width="384" height="784" rx="72" fill="url(#paint0_linear_248_2019)"/>
<path d="M108.774 343.534C112.666 343.562 116.501 344.273 120.28 345.665C124.058 347.057 127.467 349.33 130.507 352.483C133.575 355.636 136.018 359.898 137.837 365.267C139.683 370.608 140.621 377.256 140.649 385.21C140.649 392.852 139.882 399.656 138.348 405.622C136.814 411.56 134.612 416.574 131.743 420.665C128.902 424.756 125.45 427.866 121.388 429.997C117.325 432.128 112.751 433.193 107.666 433.193C102.467 433.193 97.8509 432.17 93.8168 430.125C89.7827 428.08 86.5014 425.253 83.973 421.645C81.4446 418.009 79.8679 413.832 79.2429 409.116H92.2401C93.0923 412.866 94.8253 415.906 97.4389 418.236C100.081 420.537 103.49 421.688 107.666 421.688C114.058 421.688 119.044 418.903 122.624 413.335C126.203 407.739 128.007 399.926 128.036 389.898H127.354C125.876 392.341 124.03 394.443 121.814 396.205C119.626 397.966 117.169 399.33 114.442 400.295C111.714 401.261 108.803 401.744 105.706 401.744C100.678 401.744 96.1037 400.509 91.9844 398.037C87.8651 395.565 84.5838 392.17 82.1406 387.852C79.6974 383.534 78.4759 378.605 78.4759 373.065C78.4759 367.554 79.7259 362.554 82.2259 358.065C84.7543 353.577 88.277 350.026 92.794 347.412C97.3395 344.77 102.666 343.477 108.774 343.534ZM108.817 354.614C105.493 354.614 102.496 355.437 99.8253 357.085C97.1832 358.705 95.0952 360.906 93.5611 363.69C92.027 366.446 91.2599 369.514 91.2599 372.895C91.2599 376.276 91.9986 379.344 93.4759 382.099C94.9815 384.827 97.027 387 99.6122 388.619C102.226 390.21 105.209 391.006 108.561 391.006C111.061 391.006 113.391 390.523 115.55 389.557C117.709 388.591 119.598 387.256 121.217 385.551C122.837 383.818 124.101 381.858 125.01 379.67C125.919 377.483 126.374 375.182 126.374 372.767C126.374 369.557 125.607 366.574 124.072 363.818C122.567 361.062 120.493 358.847 117.851 357.17C115.209 355.466 112.197 354.614 108.817 354.614ZM158.609 421.176C156.279 421.176 154.276 420.352 152.6 418.705C150.924 417.028 150.086 415.011 150.086 412.653C150.086 410.324 150.924 408.335 152.6 406.688C154.276 405.011 156.279 404.173 158.609 404.173C160.938 404.173 162.941 405.011 164.617 406.688C166.293 408.335 167.131 410.324 167.131 412.653C167.131 414.216 166.734 415.651 165.938 416.957C165.171 418.236 164.148 419.259 162.87 420.026C161.592 420.793 160.171 421.176 158.609 421.176ZM158.609 377.455C156.279 377.455 154.276 376.631 152.6 374.983C150.924 373.307 150.086 371.29 150.086 368.932C150.086 366.602 150.924 364.614 152.6 362.966C154.276 361.29 156.279 360.452 158.609 360.452C160.938 360.452 162.941 361.29 164.617 362.966C166.293 364.614 167.131 366.602 167.131 368.932C167.131 370.494 166.734 371.929 165.938 373.236C165.171 374.514 164.148 375.537 162.87 376.304C161.592 377.071 160.171 377.455 158.609 377.455ZM178.028 432V422.455L207.559 391.858C210.712 388.534 213.312 385.622 215.357 383.122C217.431 380.594 218.979 378.193 220.002 375.92C221.025 373.648 221.536 371.233 221.536 368.676C221.536 365.778 220.854 363.278 219.491 361.176C218.127 359.045 216.266 357.412 213.908 356.276C211.55 355.111 208.894 354.528 205.94 354.528C202.815 354.528 200.087 355.168 197.758 356.446C195.428 357.724 193.638 359.528 192.388 361.858C191.138 364.187 190.513 366.915 190.513 370.04H177.942C177.942 364.727 179.164 360.082 181.607 356.105C184.05 352.128 187.403 349.045 191.664 346.858C195.925 344.642 200.769 343.534 206.195 343.534C211.678 343.534 216.508 344.628 220.684 346.815C224.888 348.974 228.17 351.929 230.528 355.679C232.886 359.401 234.065 363.605 234.065 368.293C234.065 371.531 233.454 374.699 232.232 377.795C231.039 380.892 228.951 384.344 225.968 388.151C222.985 391.929 218.837 396.517 213.525 401.915L196.181 420.068V420.707H235.471V432H178.028ZM274.428 433.193C269.087 433.193 264.286 432.17 260.025 430.125C255.792 428.051 252.411 425.21 249.883 421.602C247.354 417.994 246.005 413.875 245.835 409.244H258.619C258.931 412.994 260.593 416.077 263.604 418.491C266.616 420.906 270.224 422.114 274.428 422.114C277.781 422.114 280.749 421.347 283.335 419.812C285.948 418.25 287.994 416.105 289.471 413.378C290.977 410.651 291.729 407.54 291.729 404.045C291.729 400.494 290.962 397.327 289.428 394.543C287.894 391.759 285.778 389.571 283.079 387.98C280.408 386.389 277.34 385.58 273.874 385.551C271.232 385.551 268.576 386.006 265.906 386.915C263.235 387.824 261.076 389.017 259.428 390.494L247.369 388.705L252.269 344.727H300.252V356.02H263.221L260.451 380.438H260.962C262.667 378.79 264.925 377.412 267.738 376.304C270.579 375.196 273.619 374.642 276.857 374.642C282.17 374.642 286.9 375.906 291.048 378.435C295.224 380.963 298.505 384.415 300.891 388.79C303.306 393.136 304.499 398.136 304.471 403.79C304.499 409.443 303.221 414.486 300.636 418.918C298.079 423.349 294.528 426.844 289.982 429.401C285.465 431.929 280.281 433.193 274.428 433.193Z" fill="white"/>
<path d="M87.5749 252.909H92.9016L102.163 275.523H102.504L111.765 252.909H117.092V282H112.916V260.949H112.646L104.066 281.957H100.6L92.021 260.935H91.7511V282H87.5749V252.909ZM146.743 267.455C146.743 270.561 146.175 273.231 145.039 275.466C143.902 277.691 142.345 279.405 140.365 280.608C138.396 281.801 136.156 282.398 133.647 282.398C131.128 282.398 128.879 281.801 126.9 280.608C124.93 279.405 123.377 277.687 122.24 275.452C121.104 273.217 120.536 270.551 120.536 267.455C120.536 264.348 121.104 261.683 122.24 259.457C123.377 257.223 124.93 255.509 126.9 254.315C128.879 253.113 131.128 252.511 133.647 252.511C136.156 252.511 138.396 253.113 140.365 254.315C142.345 255.509 143.902 257.223 145.039 259.457C146.175 261.683 146.743 264.348 146.743 267.455ZM142.397 267.455C142.397 265.087 142.013 263.094 141.246 261.474C140.489 259.846 139.447 258.615 138.121 257.781C136.805 256.938 135.313 256.517 133.647 256.517C131.971 256.517 130.474 256.938 129.158 257.781C127.842 258.615 126.8 259.846 126.033 261.474C125.275 263.094 124.897 265.087 124.897 267.455C124.897 269.822 125.275 271.82 126.033 273.449C126.8 275.068 127.842 276.299 129.158 277.142C130.474 277.975 131.971 278.392 133.647 278.392C135.313 278.392 136.805 277.975 138.121 277.142C139.447 276.299 140.489 275.068 141.246 273.449C142.013 271.82 142.397 269.822 142.397 267.455ZM173.696 252.909V282H169.662L154.875 260.665H154.605V282H150.216V252.909H154.278L169.079 274.273H169.349V252.909H173.696ZM183.283 278.023L183.07 279.571C182.928 280.707 182.686 281.891 182.346 283.122C182.014 284.363 181.668 285.513 181.309 286.574C180.958 287.634 180.669 288.477 180.442 289.102H177.431C177.554 288.515 177.724 287.72 177.942 286.716C178.16 285.722 178.373 284.609 178.581 283.378C178.79 282.147 178.946 280.892 179.05 279.614L179.192 278.023H183.283ZM207.046 252.909H211.421V273.534C211.421 275.4 211.051 276.995 210.313 278.321C209.584 279.647 208.556 280.66 207.23 281.361C205.905 282.052 204.352 282.398 202.571 282.398C200.933 282.398 199.461 282.099 198.154 281.503C196.856 280.906 195.829 280.04 195.071 278.903C194.323 277.758 193.949 276.366 193.949 274.727H198.31C198.31 275.532 198.495 276.228 198.864 276.815C199.243 277.402 199.759 277.862 200.412 278.193C201.075 278.515 201.833 278.676 202.685 278.676C203.613 278.676 204.399 278.482 205.043 278.094C205.696 277.696 206.194 277.114 206.534 276.347C206.875 275.58 207.046 274.642 207.046 273.534V252.909ZM218.267 282H213.608L224.076 252.909H229.147L239.616 282H234.957L226.733 258.193H226.505L218.267 282ZM219.048 270.608H234.162V274.301H219.048V270.608ZM265.297 252.909V282H261.263L246.476 260.665H246.206V282H241.817V252.909H245.88L260.681 274.273H260.951V252.909H265.297ZM277.888 282V278.818L287.732 268.619C288.783 267.511 289.65 266.541 290.331 265.707C291.023 264.865 291.539 264.064 291.88 263.307C292.221 262.549 292.391 261.744 292.391 260.892C292.391 259.926 292.164 259.093 291.709 258.392C291.255 257.682 290.634 257.137 289.848 256.759C289.062 256.37 288.177 256.176 287.192 256.176C286.15 256.176 285.241 256.389 284.465 256.815C283.688 257.241 283.092 257.843 282.675 258.619C282.258 259.396 282.05 260.305 282.05 261.347H277.86C277.86 259.576 278.267 258.027 279.081 256.702C279.896 255.376 281.013 254.348 282.434 253.619C283.854 252.881 285.469 252.511 287.277 252.511C289.105 252.511 290.715 252.876 292.107 253.605C293.508 254.325 294.602 255.31 295.388 256.56C296.174 257.8 296.567 259.202 296.567 260.764C296.567 261.844 296.364 262.9 295.956 263.932C295.559 264.964 294.863 266.115 293.868 267.384C292.874 268.643 291.491 270.172 289.721 271.972L283.939 278.023V278.236H297.036V282H277.888Z" fill="white" fill-opacity="0.8"/>
<path d="M128.113 498.731C127.096 497.59 125.856 496.67 124.469 496.029C123.082 495.387 121.578 495.037 120.05 495C118.524 494.967 117.006 495.242 115.589 495.809C114.171 496.376 112.882 497.223 111.8 498.3L110 500.081L108.594 498.694C104.225 494.306 97.1002 493.931 92.7314 497.888C91.5945 498.907 90.6775 500.149 90.0366 501.535C89.3957 502.921 89.0443 504.424 89.0039 505.951C88.9636 507.478 89.2351 508.997 89.8018 510.415C90.3686 511.834 91.2187 513.121 92.3002 514.2L107.881 529.781C108.159 530.061 108.489 530.284 108.852 530.435C109.216 530.587 109.606 530.665 110 530.665C110.394 530.665 110.784 530.587 111.148 530.435C111.512 530.284 111.842 530.061 112.119 529.781L127.306 514.594C131.694 510.225 132.05 503.1 128.113 498.731Z" fill="white" fill-opacity="0.8"/>
<path d="M252.962 510C252.977 506.043 251.422 502.242 248.638 499.43C245.855 496.618 242.069 495.025 238.112 495H238C236.032 495.002 234.085 495.392 232.268 496.147C230.451 496.903 228.801 498.008 227.412 499.401C226.023 500.794 224.921 502.447 224.17 504.265C223.42 506.084 223.035 508.033 223.037 510C223.037 516.431 221.706 520.069 220.6 521.981C220.334 522.439 220.192 522.958 220.189 523.488C220.186 524.018 220.321 524.539 220.581 525C220.844 525.458 221.223 525.839 221.681 526.103C222.139 526.366 222.659 526.503 223.187 526.5H230.5C230.5 528.489 231.29 530.397 232.696 531.803C234.103 533.21 236.011 534 238 534C239.989 534 241.897 533.21 243.303 531.803C244.71 530.397 245.5 528.489 245.5 526.5H252.812C253.341 526.503 253.86 526.366 254.318 526.103C254.776 525.839 255.156 525.458 255.419 525C255.679 524.539 255.814 524.018 255.811 523.488C255.807 522.958 255.666 522.439 255.4 521.981C254.294 520.069 252.962 516.431 252.962 510ZM238 531C236.808 530.995 235.666 530.519 234.823 529.676C233.98 528.834 233.505 527.692 233.5 526.5H242.5C242.495 527.692 242.019 528.834 241.176 529.676C240.333 530.519 239.192 530.995 238 531ZM256.169 502.744C255.962 502.836 255.739 502.887 255.512 502.894C255.23 502.896 254.953 502.818 254.714 502.669C254.475 502.519 254.284 502.304 254.162 502.05C252.681 499.07 250.412 496.554 247.6 494.775C247.432 494.67 247.287 494.534 247.173 494.373C247.058 494.212 246.976 494.03 246.932 493.838C246.887 493.646 246.881 493.446 246.914 493.252C246.946 493.057 247.017 492.87 247.122 492.703C247.226 492.536 247.363 492.39 247.524 492.276C247.684 492.161 247.866 492.079 248.059 492.035C248.251 491.99 248.45 491.984 248.645 492.017C248.84 492.05 249.026 492.12 249.194 492.225C252.484 494.297 255.133 497.245 256.844 500.737C257.019 501.093 257.047 501.504 256.92 501.88C256.794 502.256 256.523 502.566 256.169 502.744V502.744ZM220.487 502.894C220.261 502.887 220.038 502.836 219.831 502.744C219.476 502.566 219.206 502.256 219.079 501.88C218.953 501.504 218.98 501.093 219.156 500.737C220.866 497.245 223.515 494.297 226.806 492.225C227.144 492.014 227.552 491.945 227.941 492.035C228.133 492.079 228.315 492.161 228.476 492.276C228.637 492.39 228.773 492.536 228.878 492.703C228.983 492.87 229.053 493.057 229.086 493.252C229.118 493.446 229.112 493.646 229.068 493.838C229.024 494.03 228.942 494.212 228.827 494.373C228.712 494.534 228.567 494.67 228.4 494.775C225.588 496.554 223.318 499.07 221.837 502.05C221.716 502.304 221.524 502.519 221.285 502.669C221.046 502.818 220.769 502.896 220.487 502.894V502.894Z" fill="white" fill-opacity="0.8"/>
<path d="M159.236 524.318C157.812 524.318 156.532 524.045 155.395 523.5C154.266 522.947 153.365 522.189 152.691 521.227C152.016 520.265 151.657 519.167 151.611 517.932H155.02C155.104 518.932 155.547 519.754 156.35 520.398C157.153 521.042 158.115 521.364 159.236 521.364C160.13 521.364 160.922 521.159 161.611 520.75C162.308 520.333 162.854 519.761 163.247 519.034C163.649 518.307 163.85 517.477 163.85 516.545C163.85 515.598 163.645 514.754 163.236 514.011C162.827 513.269 162.263 512.686 161.543 512.261C160.831 511.837 160.013 511.621 159.088 511.614C158.384 511.614 157.675 511.735 156.963 511.977C156.251 512.22 155.675 512.538 155.236 512.932L152.02 512.455L153.327 500.727H166.122V503.739H156.247L155.509 510.25H155.645C156.1 509.811 156.702 509.443 157.452 509.148C158.21 508.852 159.02 508.705 159.884 508.705C161.3 508.705 162.562 509.042 163.668 509.716C164.782 510.39 165.657 511.311 166.293 512.477C166.937 513.636 167.255 514.97 167.247 516.477C167.255 517.985 166.914 519.33 166.225 520.511C165.543 521.693 164.596 522.625 163.384 523.307C162.179 523.981 160.797 524.318 159.236 524.318ZM178.628 500.727V524H175.105V504.25H174.968L169.4 507.886V504.523L175.207 500.727H178.628Z" fill="white" fill-opacity="0.8"/>
<path d="M279.426 524V521.455L287.301 513.295C288.142 512.409 288.835 511.633 289.381 510.966C289.934 510.292 290.347 509.652 290.619 509.045C290.892 508.439 291.028 507.795 291.028 507.114C291.028 506.341 290.847 505.674 290.483 505.114C290.119 504.545 289.623 504.11 288.994 503.807C288.366 503.496 287.657 503.341 286.869 503.341C286.036 503.341 285.309 503.511 284.688 503.852C284.066 504.193 283.589 504.674 283.256 505.295C282.922 505.917 282.756 506.644 282.756 507.477H279.403C279.403 506.061 279.729 504.822 280.381 503.761C281.032 502.701 281.926 501.879 283.062 501.295C284.199 500.705 285.491 500.409 286.938 500.409C288.4 500.409 289.688 500.701 290.801 501.284C291.922 501.86 292.797 502.648 293.426 503.648C294.055 504.64 294.369 505.761 294.369 507.011C294.369 507.875 294.206 508.72 293.881 509.545C293.563 510.371 293.006 511.292 292.21 512.307C291.415 513.314 290.309 514.538 288.892 515.977L284.267 520.818V520.989H294.744V524H279.426Z" fill="white" fill-opacity="0.8"/>
<defs>
<linearGradient id="paint0_linear_248_2019" x1="0" y1="0" x2="619.405" y2="303.382" gradientUnits="userSpaceOnUse">
<stop stop-color="#74B4F7"/>
<stop offset="1" stop-color="#004893"/>
</linearGradient>
</defs>
</svg>
