<svg width="384" height="784" viewBox="0 0 384 784" fill="none" xmlns="http://www.w3.org/2000/svg">
<rect width="384" height="784" rx="72" fill="url(#paint0_linear_248_2018)"/>
<path d="M144.705 370.932C135.727 370.894 128.057 368.527 121.693 363.83C115.33 359.133 110.462 352.295 107.091 343.318C103.72 334.341 102.034 323.527 102.034 310.875C102.034 298.261 103.72 287.485 107.091 278.545C110.5 269.606 115.386 262.788 121.75 258.091C128.152 253.394 135.803 251.045 144.705 251.045C153.606 251.045 161.239 253.413 167.602 258.148C173.966 262.845 178.833 269.663 182.205 278.602C185.614 287.504 187.318 298.261 187.318 310.875C187.318 323.564 185.633 334.398 182.261 343.375C178.89 352.314 174.023 359.152 167.659 363.886C161.295 368.583 153.644 370.932 144.705 370.932ZM144.705 355.761C152.583 355.761 158.739 351.917 163.17 344.227C167.64 336.538 169.875 325.42 169.875 310.875C169.875 301.216 168.852 293.053 166.807 286.386C164.799 279.682 161.902 274.606 158.114 271.159C154.364 267.674 149.894 265.932 144.705 265.932C136.864 265.932 130.708 269.795 126.239 277.523C121.769 285.25 119.515 296.367 119.477 310.875C119.477 320.572 120.481 328.773 122.489 335.477C124.534 342.144 127.432 347.201 131.182 350.648C134.932 354.057 139.439 355.761 144.705 355.761ZM238.168 251.045C243.357 251.083 248.471 252.03 253.509 253.886C258.546 255.742 263.092 258.773 267.145 262.977C271.236 267.182 274.493 272.864 276.918 280.023C279.38 287.144 280.63 296.008 280.668 306.614C280.668 316.803 279.645 325.875 277.599 333.83C275.554 341.746 272.618 348.432 268.793 353.886C265.005 359.341 260.402 363.489 254.986 366.33C249.569 369.17 243.471 370.591 236.69 370.591C229.759 370.591 223.603 369.227 218.224 366.5C212.846 363.773 208.471 360.004 205.099 355.193C201.728 350.345 199.626 344.777 198.793 338.489H216.122C217.259 343.489 219.569 347.542 223.054 350.648C226.577 353.716 231.122 355.25 236.69 355.25C245.213 355.25 251.861 351.538 256.634 344.114C261.406 336.652 263.812 326.235 263.849 312.864H262.94C260.971 316.121 258.509 318.924 255.554 321.273C252.637 323.621 249.361 325.439 245.724 326.727C242.088 328.015 238.205 328.659 234.077 328.659C227.372 328.659 221.274 327.011 215.781 323.716C210.289 320.42 205.914 315.894 202.656 310.136C199.399 304.379 197.77 297.807 197.77 290.42C197.77 283.072 199.437 276.405 202.77 270.42C206.141 264.436 210.838 259.701 216.861 256.216C222.921 252.693 230.024 250.97 238.168 251.045ZM238.224 265.818C233.793 265.818 229.796 266.917 226.236 269.114C222.713 271.273 219.929 274.208 217.884 277.92C215.838 281.595 214.815 285.686 214.815 290.193C214.815 294.701 215.8 298.792 217.77 302.466C219.777 306.102 222.505 309 225.952 311.159C229.437 313.28 233.414 314.341 237.884 314.341C241.217 314.341 244.323 313.697 247.202 312.409C250.08 311.121 252.599 309.341 254.759 307.068C256.918 304.758 258.603 302.144 259.815 299.227C261.027 296.311 261.634 293.242 261.634 290.023C261.634 285.742 260.611 281.765 258.565 278.091C256.558 274.417 253.793 271.462 250.27 269.227C246.747 266.955 242.732 265.818 238.224 265.818Z" fill="white"/>
<path d="M108.521 523V510.273L147.896 469.477C152.101 465.045 155.567 461.163 158.294 457.83C161.059 454.458 163.124 451.258 164.487 448.227C165.851 445.197 166.533 441.977 166.533 438.568C166.533 434.705 165.624 431.371 163.805 428.568C161.987 425.727 159.506 423.549 156.362 422.034C153.218 420.481 149.677 419.705 145.737 419.705C141.571 419.705 137.934 420.557 134.828 422.261C131.722 423.966 129.336 426.371 127.669 429.477C126.002 432.583 125.169 436.22 125.169 440.386H108.408C108.408 433.303 110.036 427.11 113.294 421.807C116.552 416.504 121.021 412.394 126.703 409.477C132.385 406.523 138.843 405.045 146.078 405.045C153.389 405.045 159.828 406.504 165.396 409.42C171.002 412.299 175.377 416.239 178.521 421.239C181.665 426.201 183.237 431.807 183.237 438.057C183.237 442.375 182.423 446.598 180.794 450.727C179.203 454.856 176.419 459.458 172.442 464.534C168.464 469.572 162.934 475.689 155.851 482.886L132.726 507.091V507.943H185.112V523H108.521ZM237.055 524.591C229.934 524.591 223.533 523.227 217.851 520.5C212.207 517.735 207.699 513.947 204.328 509.136C200.957 504.326 199.158 498.833 198.93 492.659H215.976C216.393 497.659 218.608 501.769 222.624 504.989C226.639 508.208 231.449 509.818 237.055 509.818C241.525 509.818 245.483 508.795 248.93 506.75C252.415 504.667 255.143 501.807 257.112 498.17C259.12 494.534 260.124 490.386 260.124 485.727C260.124 480.992 259.101 476.769 257.055 473.057C255.01 469.345 252.188 466.428 248.589 464.307C245.029 462.186 240.938 461.106 236.317 461.068C232.794 461.068 229.252 461.674 225.692 462.886C222.131 464.098 219.252 465.689 217.055 467.659L200.976 465.273L207.51 406.636H271.487V421.693H222.112L218.419 454.25H219.101C221.374 452.053 224.385 450.216 228.135 448.739C231.923 447.261 235.976 446.523 240.294 446.523C247.377 446.523 253.684 448.208 259.214 451.58C264.783 454.951 269.158 459.553 272.339 465.386C275.559 471.182 277.15 477.848 277.112 485.386C277.15 492.924 275.446 499.648 271.999 505.557C268.589 511.466 263.855 516.125 257.794 519.534C251.771 522.905 244.858 524.591 237.055 524.591Z" fill="white"/>
<path d="M87.5749 172.909H92.9016L102.163 195.523H102.504L111.765 172.909H117.092V202H112.916V180.949H112.646L104.066 201.957H100.6L92.021 180.935H91.7511V202H87.5749V172.909ZM146.743 187.455C146.743 190.561 146.175 193.231 145.039 195.466C143.902 197.691 142.345 199.405 140.365 200.608C138.396 201.801 136.156 202.398 133.647 202.398C131.128 202.398 128.879 201.801 126.9 200.608C124.93 199.405 123.377 197.687 122.24 195.452C121.104 193.217 120.536 190.551 120.536 187.455C120.536 184.348 121.104 181.683 122.24 179.457C123.377 177.223 124.93 175.509 126.9 174.315C128.879 173.113 131.128 172.511 133.647 172.511C136.156 172.511 138.396 173.113 140.365 174.315C142.345 175.509 143.902 177.223 145.039 179.457C146.175 181.683 146.743 184.348 146.743 187.455ZM142.397 187.455C142.397 185.087 142.013 183.094 141.246 181.474C140.489 179.846 139.447 178.615 138.121 177.781C136.805 176.938 135.313 176.517 133.647 176.517C131.971 176.517 130.474 176.938 129.158 177.781C127.842 178.615 126.8 179.846 126.033 181.474C125.275 183.094 124.897 185.087 124.897 187.455C124.897 189.822 125.275 191.82 126.033 193.449C126.8 195.068 127.842 196.299 129.158 197.142C130.474 197.975 131.971 198.392 133.647 198.392C135.313 198.392 136.805 197.975 138.121 197.142C139.447 196.299 140.489 195.068 141.246 193.449C142.013 191.82 142.397 189.822 142.397 187.455ZM173.696 172.909V202H169.662L154.875 180.665H154.605V202H150.216V172.909H154.278L169.079 194.273H169.349V172.909H173.696ZM183.283 198.023L183.07 199.571C182.928 200.707 182.686 201.891 182.346 203.122C182.014 204.363 181.668 205.513 181.309 206.574C180.958 207.634 180.669 208.477 180.442 209.102H177.431C177.554 208.515 177.724 207.72 177.942 206.716C178.16 205.722 178.373 204.609 178.581 203.378C178.79 202.147 178.946 200.892 179.05 199.614L179.192 198.023H183.283ZM207.046 172.909H211.421V193.534C211.421 195.4 211.051 196.995 210.313 198.321C209.584 199.647 208.556 200.66 207.23 201.361C205.905 202.052 204.352 202.398 202.571 202.398C200.933 202.398 199.461 202.099 198.154 201.503C196.856 200.906 195.829 200.04 195.071 198.903C194.323 197.758 193.949 196.366 193.949 194.727H198.31C198.31 195.532 198.495 196.228 198.864 196.815C199.243 197.402 199.759 197.862 200.412 198.193C201.075 198.515 201.833 198.676 202.685 198.676C203.613 198.676 204.399 198.482 205.043 198.094C205.696 197.696 206.194 197.114 206.534 196.347C206.875 195.58 207.046 194.642 207.046 193.534V172.909ZM218.267 202H213.608L224.076 172.909H229.147L239.616 202H234.957L226.733 178.193H226.505L218.267 202ZM219.048 190.608H234.162V194.301H219.048V190.608ZM265.297 172.909V202H261.263L246.476 180.665H246.206V202H241.817V172.909H245.88L260.681 194.273H260.951V172.909H265.297ZM277.888 202V198.818L287.732 188.619C288.783 187.511 289.65 186.541 290.331 185.707C291.023 184.865 291.539 184.064 291.88 183.307C292.221 182.549 292.391 181.744 292.391 180.892C292.391 179.926 292.164 179.093 291.709 178.392C291.255 177.682 290.634 177.137 289.848 176.759C289.062 176.37 288.177 176.176 287.192 176.176C286.15 176.176 285.241 176.389 284.465 176.815C283.688 177.241 283.092 177.843 282.675 178.619C282.258 179.396 282.05 180.305 282.05 181.347H277.86C277.86 179.576 278.267 178.027 279.081 176.702C279.896 175.376 281.013 174.348 282.434 173.619C283.854 172.881 285.469 172.511 287.277 172.511C289.105 172.511 290.715 172.876 292.107 173.605C293.508 174.325 294.602 175.31 295.388 176.56C296.174 177.8 296.567 179.202 296.567 180.764C296.567 181.844 296.364 182.9 295.956 183.932C295.559 184.964 294.863 186.115 293.868 187.384C292.874 188.643 291.491 190.172 289.721 191.972L283.939 198.023V198.236H297.036V202H277.888Z" fill="white" fill-opacity="0.8"/>
<path d="M128.113 578.731C127.096 577.59 125.856 576.67 124.469 576.029C123.082 575.387 121.578 575.037 120.05 575C118.524 574.967 117.006 575.242 115.589 575.809C114.171 576.376 112.882 577.223 111.8 578.3L110 580.081L108.594 578.694C104.225 574.306 97.1002 573.931 92.7314 577.888C91.5945 578.907 90.6775 580.149 90.0366 581.535C89.3957 582.921 89.0443 584.424 89.0039 585.951C88.9636 587.478 89.2351 588.997 89.8018 590.415C90.3686 591.834 91.2187 593.121 92.3002 594.2L107.881 609.781C108.159 610.061 108.489 610.284 108.852 610.435C109.216 610.587 109.606 610.665 110 610.665C110.394 610.665 110.784 610.587 111.148 610.435C111.512 610.284 111.842 610.061 112.119 609.781L127.306 594.594C131.694 590.225 132.05 583.1 128.113 578.731Z" fill="white" fill-opacity="0.8"/>
<path d="M252.962 590C252.977 586.043 251.422 582.242 248.638 579.43C245.855 576.618 242.069 575.025 238.112 575H238C236.032 575.002 234.085 575.392 232.268 576.147C230.451 576.903 228.801 578.008 227.412 579.401C226.023 580.794 224.921 582.447 224.17 584.265C223.42 586.084 223.035 588.033 223.037 590C223.037 596.431 221.706 600.069 220.6 601.981C220.334 602.439 220.192 602.958 220.189 603.488C220.186 604.018 220.321 604.539 220.581 605C220.844 605.458 221.223 605.839 221.681 606.103C222.139 606.366 222.659 606.503 223.187 606.5H230.5C230.5 608.489 231.29 610.397 232.696 611.803C234.103 613.21 236.011 614 238 614C239.989 614 241.897 613.21 243.303 611.803C244.71 610.397 245.5 608.489 245.5 606.5H252.812C253.341 606.503 253.86 606.366 254.318 606.103C254.776 605.839 255.156 605.458 255.419 605C255.679 604.539 255.814 604.018 255.811 603.488C255.807 602.958 255.666 602.439 255.4 601.981C254.294 600.069 252.962 596.431 252.962 590ZM238 611C236.808 610.995 235.666 610.519 234.823 609.676C233.98 608.834 233.505 607.692 233.5 606.5H242.5C242.495 607.692 242.019 608.834 241.176 609.676C240.333 610.519 239.192 610.995 238 611ZM256.169 582.744C255.962 582.836 255.739 582.887 255.512 582.894C255.23 582.896 254.953 582.818 254.714 582.669C254.475 582.519 254.284 582.304 254.162 582.05C252.681 579.07 250.412 576.554 247.6 574.775C247.432 574.67 247.287 574.534 247.173 574.373C247.058 574.212 246.976 574.03 246.932 573.838C246.887 573.646 246.881 573.446 246.914 573.252C246.946 573.057 247.017 572.87 247.122 572.703C247.226 572.536 247.363 572.39 247.524 572.276C247.684 572.161 247.866 572.079 248.059 572.035C248.251 571.99 248.45 571.984 248.645 572.017C248.84 572.05 249.026 572.12 249.194 572.225C252.484 574.297 255.133 577.245 256.844 580.737C257.019 581.093 257.047 581.504 256.92 581.88C256.794 582.256 256.523 582.566 256.169 582.744V582.744ZM220.487 582.894C220.261 582.887 220.038 582.836 219.831 582.744C219.476 582.566 219.206 582.256 219.079 581.88C218.953 581.504 218.98 581.093 219.156 580.737C220.866 577.245 223.515 574.297 226.806 572.225C227.144 572.014 227.552 571.945 227.941 572.035C228.133 572.079 228.315 572.161 228.476 572.276C228.637 572.39 228.773 572.536 228.878 572.703C228.983 572.87 229.053 573.057 229.086 573.252C229.118 573.446 229.112 573.646 229.068 573.838C229.024 574.03 228.942 574.212 228.827 574.373C228.712 574.534 228.567 574.67 228.4 574.775C225.588 576.554 223.318 579.07 221.837 582.05C221.716 582.304 221.524 582.519 221.285 582.669C221.046 582.818 220.769 582.896 220.487 582.894V582.894Z" fill="white" fill-opacity="0.8"/>
<path d="M159.236 604.318C157.812 604.318 156.532 604.045 155.395 603.5C154.266 602.947 153.365 602.189 152.691 601.227C152.016 600.265 151.657 599.167 151.611 597.932H155.02C155.104 598.932 155.547 599.754 156.35 600.398C157.153 601.042 158.115 601.364 159.236 601.364C160.13 601.364 160.922 601.159 161.611 600.75C162.308 600.333 162.854 599.761 163.247 599.034C163.649 598.307 163.85 597.477 163.85 596.545C163.85 595.598 163.645 594.754 163.236 594.011C162.827 593.269 162.263 592.686 161.543 592.261C160.831 591.837 160.013 591.621 159.088 591.614C158.384 591.614 157.675 591.735 156.963 591.977C156.251 592.22 155.675 592.538 155.236 592.932L152.02 592.455L153.327 580.727H166.122V583.739H156.247L155.509 590.25H155.645C156.1 589.811 156.702 589.443 157.452 589.148C158.21 588.852 159.02 588.705 159.884 588.705C161.3 588.705 162.562 589.042 163.668 589.716C164.782 590.39 165.657 591.311 166.293 592.477C166.937 593.636 167.255 594.97 167.247 596.477C167.255 597.985 166.914 599.33 166.225 600.511C165.543 601.693 164.596 602.625 163.384 603.307C162.179 603.981 160.797 604.318 159.236 604.318ZM178.628 580.727V604H175.105V584.25H174.968L169.4 587.886V584.523L175.207 580.727H178.628Z" fill="white" fill-opacity="0.8"/>
<path d="M279.426 604V601.455L287.301 593.295C288.142 592.409 288.835 591.633 289.381 590.966C289.934 590.292 290.347 589.652 290.619 589.045C290.892 588.439 291.028 587.795 291.028 587.114C291.028 586.341 290.847 585.674 290.483 585.114C290.119 584.545 289.623 584.11 288.994 583.807C288.366 583.496 287.657 583.341 286.869 583.341C286.036 583.341 285.309 583.511 284.688 583.852C284.066 584.193 283.589 584.674 283.256 585.295C282.922 585.917 282.756 586.644 282.756 587.477H279.403C279.403 586.061 279.729 584.822 280.381 583.761C281.032 582.701 281.926 581.879 283.062 581.295C284.199 580.705 285.491 580.409 286.938 580.409C288.4 580.409 289.688 580.701 290.801 581.284C291.922 581.86 292.797 582.648 293.426 583.648C294.055 584.64 294.369 585.761 294.369 587.011C294.369 587.875 294.206 588.72 293.881 589.545C293.563 590.371 293.006 591.292 292.21 592.307C291.415 593.314 290.309 594.538 288.892 595.977L284.267 600.818V600.989H294.744V604H279.426Z" fill="white" fill-opacity="0.8"/>
<defs>
<linearGradient id="paint0_linear_248_2018" x1="0" y1="0" x2="619.405" y2="303.382" gradientUnits="userSpaceOnUse">
<stop stop-color="#BCD6A3"/>
<stop offset="1" stop-color="#516D33"/>
</linearGradient>
</defs>
</svg>
